<?xml version="1.0" encoding="UTF-8"?>
<svg width="379px" height="217px" viewBox="0 0 379 217" version="1.1" xmlns="http://www.w3.org/2000/svg" xmlns:xlink="http://www.w3.org/1999/xlink">
    <g stroke="none" stroke-width="1" fill="none" fill-rule="evenodd" opacity="0.103259859">
        <g transform="translate(-1011.000000, -1357.000000)">
        <path fill="#93B78C" d="M1182.04613,1545.81 C1165.68864,1562.84695 1138.88298,1573.6 1103.1,1573.6 C1056,1573.6 1011,1552.6 1011,1523.2 C1011,1507.9 1020.9,1497.7 1035,1497.7 C1046.7,1497.7 1054.8,1506.4 1054.8,1517.2 C1054.8,1527.7 1050.6,1534.3 1045.5,1539.4 L1045.5,1541.5 C1050.3,1543.9 1060.2,1546.6 1070.7,1546.6 C1102.2,1546.6 1119.6,1528.9 1119.6,1506.7 C1119.6,1492 1111.5,1471.6 1077,1471.6 C1056.6,1471.6 1032.9,1480 1027.2,1482.1 L1020.3,1478.5 L1022.4,1375.3 L1120.8,1375.3 C1140,1375.3 1149.6,1368.7 1150.8,1357 L1187.7,1357 L1187.7,1396.62378 C1210.24519,1379.54847 1239.99563,1370.2 1269.6,1370.2 C1329.3,1370.2 1389.9,1408.6 1389.9,1471.9 C1389.9,1535.2 1340.1,1573.6 1269.6,1573.6 C1233.89805,1573.6 1203.42772,1563.75225 1182.04613,1545.81 Z M1168.85626,1414.9 L1058.4,1414.9 L1058.4,1446.1 C1072.2,1442.5 1089.6,1435.6 1119.6,1435.6 C1132.26176,1435.6 1144.00123,1437.31282 1154.39066,1440.60776 C1157.80796,1431.18427 1162.73806,1422.59114 1168.85626,1414.9 Z M1314.3,1471.9 C1314.3,1415.2 1289.1,1394.5 1269.6,1394.5 C1249.8,1394.5 1224.6,1415.2 1224.6,1471.9 C1224.6,1528.6 1249.8,1549 1269.6,1549 C1289.1,1549 1314.3,1528.6 1314.3,1471.9 Z"></path>
        </g>
    </g>
</svg>
