<svg xmlns="http://www.w3.org/2000/svg" width="460" height="203"><path fill="#FFF" fill-rule="nonzero" d="M153 135.8V157H86.4v-21.2h8.8V77.4H64.4v58.4h8.8V157H6.6v-21.2h8.8V77.4H0V56.2h15.4V48c0-25.8 23.6-48 64-48 37 0 44 14.6 44 27 0 10-7.8 18.2-18.6 18.2-10.2 0-18-6.6-18-16.6 0-4.4 1.4-8.6 4.8-13.4v-1.8c-3-1.2-8.2-1.2-8.2-1.2-13.2 0-19 7.8-19 26v18h79.8v79.6h8.8zM256.95 25.2c0 14-7.4 20-15.8 20-11.4 0-16-6.6-16-14.8 0 0 0-8.2 8-15.8v-1.8s-3.4-.6-6.6-.6c-11.4 0-14 8.2-14 26v18h17.4v21.2h-17.4v58.4h8.8V157h-66.6v-21.2h8.8V77.4h-15.4V56.2h15.4V48c0-32.4 30.2-48 58.2-48 30 0 35.2 14.6 35.2 25.2zm67.6 115v12.4c-9.4 4.8-20.2 7.8-31.4 7.8-29 0-46.4-15.8-46.4-44.4V77.4h-15.6V56.2c31.4 0 53.6-42.6 53.6-42.6h12.8v42.6h23v21.2h-23v27c0 23 .6 31.2 4.2 34.8 2.2 2.2 5.8 2.6 11 2.6 7.4 0 11.8-1.6 11.8-1.6zm134.8-84v21.2h-13.4l-39.4 79.6c-15.4 31-25.8 46-52.8 46-21.2 0-31.6-12.4-31.6-23.8 0-10.4 5.6-17.4 17.8-17.4 8.8 0 14.4 5.8 14.4 13 0 5.4-.6 9.2-6.6 14.8v2c1 .4 3.4.8 6.4.8 14.8 0 19.4-9.2 29.4-29.4l-48.6-85.6h-13.4V56.2h74v21.2h-4.6l18.4 32.4h.6l16.2-32.4h-5V56.2h38.2z"/></svg>