<svg xmlns="http://www.w3.org/2000/svg" width="1011" height="551"><g fill="none" fill-rule="evenodd" stroke="#D8D8D8"><path d="M481 230h-1v-1h1zM634 287v2l-1 1v-1h-1v1h1-1v1h1-1 1v1h-1v1h-1v3h-5l-1-1h-2v-1h-1v-1h-1v-2 1h2l1-1h1l1 1h1l1-1h1v-1l1-1h1v-1l1-1 1-1h1-1v1h1zm-5 4h-1l1-1v1zm-3 0h-1 1zm-2 0h-1 1zm3 0v1-1 1-1h-1 1zM686 249h-1v1h-6v1h-2v1h-1v2h1v2l-1 1-1 1v2h-3l1 1v2h-2v2h-1v2l-1 1v-1h-2v1h-1v1h-3v1h-1v4h-3v1h-9l-1-1h-2v-1l1-1 1-1v-2h-1l-1-1v-1h-1 1v-1l-1-1v-3h1v-1h-1v-2h1l-1-1h1v-2h1-1l1-1v-1 1h2v1h2v-1h1v-1h1v-1h2l1-1v-1l1-1v-1h2v-1h4v1h2l1 1h1v-1h1v-1 1h2v-1h2v-2h1v-1h2v1h1v2l-1 1v1h1v1l1-1h2v-1l1-1h2v1h1v-1h2zM303 313h-1v-1h1v1zm0-2h-1 1zM532 229v1h1v1h1v1l-1 1v1l1 1v1h1v1h-1v2h-1v1h-1v-1l-1-1h-1v-1 1l1-1h-1v-1h1l-1-1 1-1h-1l1-1v-1h-1v-2h1v-1 1h1zM606 243h-1v-1l-1-1h-1v-1 1-1h-2v-1h-2l-1-1h1-1v-1h1v-1h-1v-1h2v-1l1 1v-1h1v1h1-1 1l1 1h-1v1h1v1h1v1h-1l1 1h1v1l1 1h-1zM513 374h-1l-1 1v2h-1v-3h1l1-1v1h1zm30 17v6h-5v11h1v1h1v1h1l1 1h-3l-1 1h-7l-1-1h-2v-1h-14v-1h-2l-1 1h-2v-5h1v-3l1-2v-1l1-1v-1l1-1h1v-1l1-1v-2l-1-1v-1l-1-1v-2l-1-1h1v-3l-1-2v-1l-1-1v-1h-1 2v-1h10v1h1v2l1 1h-1 1v1l1 1v1l1-1v1h1v-1h3v-1h1v-1l1-1h2v1h3v7l1 1v2h1-1v1h5v-1zM300 425h1v1h1v1l1 1h1v1h1l1 1h2l1 1 1 1h2v1h2v2l-1 1v2h-1v1l-1 1h3l1 1h3v-1h2v-1h1l1-1v-1l1-1v-1h2v5h-1l-1 1h-1v1h-2v1h-1 1v1h-1v-1 1h-1v2h-1v1h-1v1h-1v1h-1v1l-1 1h1v1h-1v5h-1l1 1v1h-1v5l2 1 1 1v3l1 1h1v2l-1 2-1 1h-1v1l-1 1-3 1-2 1h-7v1h1v1h-1 1v1h-1v4l-1 1h-4l-1-1h-2v4l1 1h1v1h1v-1h1v2l-1 1v-1l-1-1h-1v1h-1l2 1-1 1-1 1v3l-1 1v2h-3v1h-1l-1 1v1l-1 1v2h1l1 2h3v3h-1 1v1l-1 2h-2v1h-1v1l-1 1v3l-1 1h-1l-1-1h-1v1h2l-1 1h-1v3h-1 1v3h-1 1l1 2h1v1h-1l-1-1h-5l-2-1h-1l-1-1v-5h-2v1l-1-1v-4h-1v-1h2v-2h1v-2h1v-2h-1v-1h1v-1l1-1v-2h1v-1l-1-1v-1h1v-1h-1l1-1 1-1h-1v-1h-1v-1h2v-1l-2-1v-1h1v-1h-1 1v-1h-1v-1h1-1v-1h-1l1-1h-1v-1h1l-1-1h1l1-1h-1v-6h1-1v-1h1v-4h1v-1h1v-2l-1-1v-4l1-1 1-1v-4h1v-2h1v-4h-1v-3h-1v-1h1-1v-3h1-1l1-1v-1h1v-2l-1-1v-1h1v-2l1-1 1-1v-2h1l1-1v-1h-1v-1h1v-2l-1-1h1v-1l-1-1h1v-1h1l1-1h1v-1l1-1v-1l-1-1h1v-1h1v-1h1v-1l1 1h3l1 1v1h1v-2h4v1zm-17 120v-10l1 1v1l1 1v1l1 1 1 1 1 1h1v1h1l1 1h2v1h-3v1h-1l-1-1h-5zm12-1h2v1h-3 1v-1zM523 205v1l1 1v2h-2 1v1h-1v2h-1v1h-3v1h-5l-1-1h-2v-1h-3v1h-1l-1-1h-1v1-1h-1v-2h2l-1 1h1v-1h3l1-1h3v1h1v-1h-1v-2h1v-1h1v-1 1-1h4v-1h2l1 1h1v-1zM842 393v-1 1h2v-1l1 1-1 1h-2v-1zm18 12l1 1v-1h-1zm7 3h1v-1h-1v1h-1 1zm-8-15l1-1h-1v1zm-11-1v1-1zm11 1h-1v1l1-1zm1 8v-2h-1v2h1zm40 28h1-1v-1 1zm5 6h1v-3 1l-1 1v1zm1 5h1-1l1-1h-1v1zm0 1h1v-1l-1 1zm-8-16v-1 1zm-1-1v1-1zm-11-11h1-1zm-11-23v-1 1zm19 29v-1 1zm-27-10h1-1zm25 74l-1-1v2h1v-1zm-9-5h1v-1h-1v1zm-1 7v-1 1zm-24-85v-1 1zm34 84h-1l1 1v-1 1l1-1h-1zm0 7v-5h-2v1l-1-1v1h-4v-1h-3v-1 3l1 1v1h1v1h-1 1v1l-1-1v1h1v2h1v1h1v1h2l1-1h-1 1v-2l1 1h1-1v1h1v-4h1v-1 1z"/><path d="M907 443v-1h-1v-6h-1v-2h-1v-2h-1v-1h-1v-1h-1l-1-1-1-1v-3h-1v1-1h-1v-1 1h-1v-1l-1-1v-2h-1v-1h-1v-1h1-1v-1h-2v-1h-1v-1h-2v-1h-1l-1-1h1l-1-1v-3l-1-1v-1h-1v-5h-1v-1h-1v-1h-2v1l-1-1v-4h-1v-3h-1v-2h-1v-1h-1v3h-1v3h-1v10h-1v2l-1 1v1h-3l-1-1h-1v-1h-1v-1h-2l-1-1-1-1h-1v-1h-2v-1h-1l-1-1v-1l1-1v-1h1l-1-1v-1h2v-1l1-1v-1h-1v-1l-1 1v1-1h-1v-1 1h-4l-1-1h-3v-1h-1l-1-1v1l-1-1v1h2v2h-4v1h-2v1h-1v2h-1v1l-1 1v1h1v2-1h-1v1h-1v-1h-2v1h-1v-1h1v-1h-1l-1-1v-1h-2l-1 1v-1l-1 1v-1 2h-1v-1h-1v1h-1v1h1v1l-1-1v1h-1 1v1-1h-1l-1 1v1h1-1v1h1-3l-1 1h1v1h1-1v2-1h-1v-1h-1v-2 1h-1v1h-1v3l-1 1v1h-1v1l-1 1-1 1h-1l-1 1h-3l-1 1h-2v1h-4l-2 1v1h-1l-1 1h-1v1l-1 1h-1v-2 1l-1 1v4l-1 1v2h1v1l1 2v2-1h-1v1-2h-1v1h1v2-1h-1v-1 1l1 2 1 1v3h1v1h1l-1 1h1v1l1 1-1 1 1 1v3l1 1 1 1v3h-1l1 2-1 1v1h-1v-1 3h1l1 1v1h4l1 1 1-1 2-1h1v-1h1l1-1h2l1-1h3l1 1h4v-1h1v-2h1v-1h1l1-1h1l1-1h5l1-1h2l1-1h8l1 1h1l2 1h1l1 1h1v1h-1l1 1h1v2h1v1h1v2h-1 1l1 1h1l-1-1h1v-1l1-1 1-1h1v-1l1-1v-1h1v-1 4h-1v3l-1 1h-1v1h2l1-2v-2l1 1v1h1v1l-1 1v1h2l1-1v1h-1v1h1v1h1v4l1 1 1 1 1 1h1l1 1h3l1 1h1l1 1v-1h1v-1h2v-1h-1 1l1-1v2h-1l1 1v-1h1v1h1v1h1l1 1v-1h-1v-1h2l2-2 1-1h5v-1h1v-6h1v-2h1v-3h1v-2h1l-1-1h1v-1h1v-1h1v-1h1v-2h1v-4l1-2v-3h1z"/><path d="M841 394h1v-1h-1v1zm-48 42v-1 1h1-1zm32-32h1-1zm64 90v1h1l-1-1zm0 1v1-1zm3-2h-1 1zm-29-25h-1v-1h-1v1h-2l1 1h2v-1h2-1zm17 14v-1 2-1zM280 326h-1v-1zM532 148h1v1h-1v1h-1v-2 1h1v-1h-1 1zm2 2h-1 1zM612 232l1 1 1 1v1l1 1v1h2v1h-2v2h-1v3-1h-1v3h-1v-1h-1v-3h1-1v-1h-1l-1 1h-1v1h-1v1h-1v-1h1l-1-1v-1h-1l-1-1h1v-1h-1v-1h-1v-1h1l-1-1h-1 1-1v-1h2l1 1h2v-1h-1v-2h1l1 1v1h1l1 1v-1h1v-1h1v-1zm-7 11h-1l-1-1v-1h-1v-1h1v1h1l1 1v1zM523 219h3v1-1h1l1 1h2v3l1 1h-1l1 1-1 1v-1 1h-1v1-1 1h-1v2h-1l-1-1h-1v-1h-1v-1l-1-1-1-1v-1h-1v-1l-1-1v-2h1v1h1v-1zM309 324l-1-1h1zM736 298v2h-1v2-1l-1-1v-3h-1v-2l-1 1h-1l-1-1v-2 1h-1 1v3l-1 1v1-1h-1v-1 1l-1 1v-2 2h-1v-3h-1v-3h-1l1-1v-1h-1v-1l-1 1v-2h1v-1h2-1v-1h-1v-1h-1l1-1v-1h1v1h1-1 1v-1 2h1v-1h1v3h6l1 1v1h-1v1h-1v1h-1v3-1h1v1-1h1v-1h1v3h1v2zm-5 0h-1v-3 1h1v2zm2-1h-1l1-1v1zm-1 0l-1 1 1-2v1zm2 2v-1 1zM489 193h1l1 1h1v2h1v1h1v1h-1v1h-1v2h-1l-1-1h-1v-1h1-2v-1h-2v-1h-1v-1h-2v-2h1l1-1v1h2l1-1zM477 319h-1v1h1v2h1v1h1v1l1 1h2v2l1 1h-1l-1 1h-2v1h-11v5-1h-1v-1h-2l-1 1h-1l-1-1v-1h-2l1-1v-1h-1 1v-3h2v-2h1v-2h1l1 1h1v-2 1h1v-2h2v-1h2l1-1 1-1h1v1-1l1 1zM556 225v1h-1v1h-1v2l-1 1h1v1l1 1h-2v-1h-1l-1 1h-1v1l-1-1v2h-4v-1h-2v1h-3v-3h-1v-3h1v-2h-1v-3h1l1 1h-1v1l1-1h1l1 1h5l1-1h1l1-1h1l1 1h1l1 1zM618 286l-1-1h1zM562 368h-1v1h1v2h-1v1l-1 1h-2v-4h-1v-1h1v1h1l1-1v-1 1h1v-1 1z"/><path d="M486 328v3h1v1h-1v1h-1v2h-1v2h-1l1 1h-1v1h1v3l-1 1h-2l-1 1v-1h1-1v-10h-1v-1h-1v-2h1v-1h2l1-1h1v-2h1l1 1v1zM300 310h-1 1zM799 347h-1v3h-1v-1l-1-1h2v-1h1zm0 0v1l1 1h-1v-2zM313 418v-1h-1l-1-1h-7l-1 1h-1v2l-1 1v3l-1 1v1-1h-4v2h-1v-1l-1-1h-3v-1h-1v1h-1v1h-1v1h-1l-1 1v-1h-1v-3l-1-1h1l-1-1h-1v-1h1l-1-1v-2l1-1h-1v-1h-1v-3h-1v-2h-1l1-1 1-1v-1h1-1l-1-2v-1h1l-1-1v-1h1v-1h1l-1-1v-3h1v-2h-1v-2h-1v-1h3l1-1h1v-1h2l1-1h1v-1h3v2h-1v1h1v1h-1v1h1v2h2v1h3v1h1v-1 1h1v1h2v1h3l1 1v2h1v1h-1v1l1 1v2h5v3h1v1h1v1l1 1h-1v2l-1 1v1l1 1zM294 266v-1 1zM284 327v-1 1z"/><path d="M317 356h2v-1h-1v-1h5v1h2v-1 1h1v-1 1h2v-1l1-1v-1h1v-2h1v-1h1l1 2v3h1v2h2v2h-1v1h-1v1h-1v1h-1v1h-1v2h-1v1h-2 3l1-1h1v1l1 1v1l1-1h2v2-1l1-1 1-1h1v-2h5v1h2l1 1h1v1-1h1v1h1v1h-1l1 1v-1 2l-1 1h1v-1l1-1v1-1h4l1 1h8v1h1l1 1h1v1l1 1h1v1h1l1 1h4l1 1v2l1 1v5l-1 2v1l-1 1h-1v1l-1 1-1 1h-1v1l-1 1v-1 2l-1 1-1 1v1h-1l-1-1v2l-1 1v2l1-1-1 2v2l1 1v2l-1 1v4h-1v1l-1 1v3l-1 1v2h-1l-1 1v3h-1l-1 1-1 1v1h-3v-1 1h-3 1-2v1h-1l-1 1h-2l-2 1-1 1-2 1v1h-1v1h-2l1 1-1 1h1l-1 1v2h1v1l-1 1v3l-1 1-1 1-1 1-1 1v2l-1 2h-1v1l-1 1h-1v1h-1v1-1h1v-1h1v-2h1v-1h1v-2l-1 1-1-1v2l-1 1v1h-1v1l-1 1 1 1h-1v2l-1 1-1 1-1 1v-3h1v-1h-2v-2h-1l-1-1-1-1h-1v-1h-1v-1 1h-1v-1h-1v-1l-1-1h-1l-1 1h-1v-1h1v-1h1v-1h1v-1l1-1v-1h1v-1 1h1v-1h-1 1v-1h2v-1h1v-1h2v-5h-2v-3l1-1h-1v-1h1-1v-1h-1v1h-2v-4l-1-1h-1v-1h-1v1h-1v-1h-3v-2l1-1h-1v-3h1l-1-1v-1l1-1v-2h1l-1-1v-1h-1v-1h-1v-3h-5v-2l-1-1v-1h1v-1h-1v-2l-1-1h-3v-1h-2v-1h-1v-1 1h-1v-1h-3v-1h-1l-1-1v-1h-1v-1h1v-1h-1v-1h1v-2h-3v1h-1l-1 1h-2v1h-1l-1 1h-6v-5 1h-1l-1 1h-3v-1l-1-1h-2 1v-1l-1-1v-1h-1v-2h-1 1v-2h1v-1h1v-1h-1l1-1v-2h2v-1h1v-1h4v-1 1h2v-5l1-1v-5h-1l-1-1v-2h3v-1h-2v-2h5-1v-1h1v1h1v-1h1v1h1v2h1v1h2v-1h1v1-1h2v-1h2v-2h2v-1h-2v-3l-1-1h-1v-1h2v1h3v1h1v-1l1-1h3v-1h1l1-1v-1h-1 2v1h1-1v1h1v1l1 1h-1v6h1v1h2v1-1h1v-1 1h1v-1h2v-1h1v1h1zm18 0h-1v-1h1v1zm0 4v-1 1zm-1 1v-2h1v1l-1 1zm2-1v1h-1v-1h1zm1 1h-1 1zm-3 0l-1 1v-1h1zm3 1v-1h1l1 1h1v1l-1 1v1h-2v1h-3v-1l-1-1h1-1v-1h1v-2h1l2 1zm-7 3l1-1v-1l1-1v2h-1v1h-1zm20 0v-1 1zm17 33v-1h1l-1 1zm0 1h-1 1zm-15 28v1l-1-1h1zm-3 3h-1l1-1v1zm-9 7h-1 1zm0 5v-2 2zM733 280v1h1v2h-5l-1 1h-1v-1h-2v-1l1-1v-1h1v-1h4v1h1v-1zM486 543h-1 1zM547 411v2h1v1l1 1v1l1 1 1 1h1v1h2v3h1v1h2v1h1l-1 1h-1v1h-1l-1 1v1h-2v1l-1 2h-1v1h-1l-1 1v2h-5l-1-1h-2v2h-1v1h-1v1h-1v1h-3v-5h-1v-1l-1-1v-8h3v-11h3l1-1h2l1 1h1v-1h2l1-1zM555 171h2v1-1h1v2h1v-1h2l1 1h1v1l-1 1h1v1l-1 1 1 1v1h1v1h1v2h2v1l1 1h-1v1h-3v2l1 1v2h-2l-1 1v3h-1v-1h-3v-1h-1v1h-1v-1h-2v1-1h-2v-1h-8v1h-2v1-3l-1-1v-1h1l1-1v-3l-1-1v-2h2v1l1-1 1-1h2-1 1v-3l1-1h2v-1h-1v-1l1-1 1-1h2v-1zM228 308v1h1v1h-1v4l-1 1-1 1h-1v-1l1-1v-4h1v-1l1-1zm1 2v-1 1zm0 2v-1h1-1v1zM261 1h-1 1zm-4 0v6h-1v1h-1l-1 1h-4l-1-1-1-1-1-1v1l1 1-1 1h-1v1h1l1-1h1v1l2 1 1-1h1v3h1v1h1l1-1 1 1v3l-1 1-2 1v1l-1 1-1 1h-1l-2 1v-4h-3v-2h-1l-1-1 1 1v2l-3 1-2-1v-2l-1 4h-4l-1-1v-2h-1v2h-1l-1-1-1-1v2h-2v-4l-1 1v3-1h-2v-4l2-2v-1l1-1h4v-1l-1-1V8h-1V6l-1-1V3l1-1V1h2v1h1l1 1 1 2v1l1 1 1 1h3l1-1 1-1V5l1-2 1-1V1h13zm-13 0l-2 3v1l-1 1h-4V3l-1-2h8zm-46 0v1h-4V1h4zm7 0v1h-2l1-1h1zm-38 0l-2 1v1h2v3h-1l-1 1h-1l-2 1h-1l-1-1h-1V6h-1V1h9zm-14 0h4v2h-3l-1-2zm37 3h-1V3h-1V1h3l1 1v1h-1l-1 1zm18-1h6v1h1l-1 1-1 2h-6l-1-1V4l1-1h1zm-26 8h-1v-1l-1-1V8l-1-1V5l-1-2h2v1l1 2v1h1v1l1 1v2h-1zm42-2l-1 1-2-1-1-1V4h1l1 1h1l1 1v3zm-72-1v1h-1l-1 1-1 1h1v1l1 1v1h-1v3l-1 1h-1l-1 1v3h-1l-1-1v-6 1h-1v2h-1v1h-1l1 1v1h-1v2h-1v-2h-1v5h-1l-1 1v-2l-1-1v-1l-1 1v1h-1l-1-1-1 1h-1v-2h-1v-1l1-1v-1h3v-1l1-2 2-2v-1h1l1-2 1-2 1-1V8h3l1 1h1V8h1l-1-1 1-1h2v1l2 1zm59 6h2l1 1v4h-1 1l1-2 1 1 1-1h3l1 1h1v1h-3 1l1 1 4 1 1 1h-1v1h-4l-1-1h-1l1 1h1v1h2v1h1v2l1-1v1h1v1h-1v1h-1v1h1l1 1h1v-1l-1-1h1l1 1h2v1l1-2 1 2h2l1 1v-1l-1-1h2l1-1h1l2-2h1l1 1h1l1-1h3l1 1v1h2l1 1v1h1l1 1v1l-1 1-1 1h-1v1h3v1l-1 1-1-1h-1l1 1v2l-3 1h-1l-1 1v-1h-3v-3h-1v-1h-1l1 1v2h-1v1h-3l-1-1v1h-1v-1 1h-4 1-2l-1 1-1-1h-2v-1h1v-2h-1v1h-1v-1 2h-1v1h-2l-1-1-1-1v-1l-1 1v1-1l-1 1v-1h-1v-1l-1-2v-1h1-1v-2l-1-1 1-1v-2h1l-1-1v-2l-1-1v-2l-1-1v-1l-1-1-1 1v1l-2-1h-1l-1 1-1-2h-1v-1h-1l1-1-2-2h-1v-1l1 1v-2h-1v-1h1l1-1h3l1 1 1 1zm-54 2h-3v-1l1-1h2v2zm67 3h-1l-1-1v-3h2v4zm-52 5h1l1 1h-1v2l1-1h1v1h1v1-3l1-1 2 1 1 1v3l-1 1v4h-1v1l-1 1-1 1h-1l-1-1h-2v1l-1-1v-1h-1v1l-1 1-2 1h-1l-1 1v1h-1l-2 1-2 1h-3l-1-1-1-1v-1l1-1 2-1 1-1h3l1-1h1v-2l-1 1h-4v1h-3v-2l1-1v-1l-1 1v-1 2h-1v2l-1 1h-1v-1h-1l-1 1-1-1-1-1h-3v-3h4v-1l2-1 1-1-3 1h-3v-1h1v-1h4l1-1h-4l-1-1h1v-2l1-1 1 1h3l-1-1h-2v-2h1l1-1h2l1 1v2h4l1 2 1 1v1h-1v1h2v1l1 1v1h6v-2l-2-2 1-2v-1l-1-1h-1v-1h-1v-1l1-1h1l1-3v-1h1l1 1v4h1v4zm20-6h-1v-1h1l1-1h1l-1 1-1 1zm10 1v8h-1v1h2v3h-1v-1l-1 1v2l1 1v1h-1v-1 2h-4v-1l-1 1h-2v-2l1-1h-1v-1h-1v-1h1l1-1 1-1h1l1-1h-3l-2 1h-2l-3 1-1-1h1v-1l1-1v-1h1l1 1 1 1v-1h1-1l-1-1v-1h-1v-2l1-1h-1l-1-1 1-1v-1h1v1l1 1v1h1l2 3 1 1v-1l-1-1v-1h2-1l-1-1h-1l1-1-2-1v-1l1-1v-1h2l1 2h1v-2l1-1v1l1 1h1v1h1zm-18-1h1l1 1h1v1h-1v1h-3v-2l-1-1 1-1h1v1zm5 7h1v1h-2v1h-2l1-1-1-1-1 1-1-1 1-1h-2v-1l1-1h1l2-1h1v3l1 1zm65 1l-1 1h-1v-1l1-1 1-1v-1h1l-1 1v2zm-110 4h-2l-1-1v-1l1-1 1-1 1-1 1-1v-1h1v3l-1 1-1 2v1zm67-2h-1v-3h1v3zm-75 0v-2l1-1v2h-1v1zm70 2v1-1h-1v2h-1v-2l1-1h1l1 1h-1zm7 6h1v2l-1 1v1h-3l-1-1-1-1h-1l-1-1v-1 1-1h-1v-2h1v-2l1-1v-1l2-1h2v1l1 1 1 1v4zm-29 0h-1l-1-1v-3l1-1h1v1h1v3l-1 1zm24 5h-1v-1h1v1h1-1zm-5 0l-1 1v-2h1v1zm-63 4l1-1v1h1v1l1-2h3l1 1h1v1l2 3 1 1h1v2l-2 1-1 1-2 1-1 1-1 1-3 2v1l-1 2-1 1-1 1-1 2v4h-1v1h-3l-1 1-1 1h-1v1h-1v-1l-1-2v-1l-1-1-2-2-1-1h-2v-3h1v-2h1v-3l1-1v-3l1-2 1-1v-3l-1-1-1-3v-1l3-1h3l2-1h2l1 1 1 1 1 1h1v1zm74 0h2v1l1 1 1-1h2l2 1v3l-1 1-1 1v2h-1v2l-1 1v1l-1 1-3-1h-1l-2 1h2v3l-1 1v3l-1-1h-1l-1 1v-5l-1-3v-5l-1-2v-1h1v-1l1 1h1v-1l-1-1v-2h1l1-1h3zm-14 3h-3v-1h1v-1h1l2-1h1v1l-1 1-1 1zm-5-1l3 2h1l1-1h3v1h1v1h-1v1h-1v1h1v1h-1l-1 1-1 1v2-1h2l1 1v3h1v-1h1v4h-1 1v1l-1 1 1 1v1l-1 1h-1v1h-3v-2 4l-1 1-1-1h-1v-1l-1-1v-1l-1-2h-1v-2h-2v-1h-2v-2l-1-1-1-1v-3h2v1h1v2h2l1-1v-1h1v-2h-1v-1h2-1v-1h-1l-1 1-2-2v-1h1v-1h1v1l1 1v-1h-1v-1l-1-1h1v-1h2v1-2zm38 27v1l1-1 1-1h2v1h1v-5h-1l-1-1v-1l-1-1v-1h1v-1h2l1 1-1-1v-2h-2v-5h1l2 1-2-2h-1v-1l1-2h1l1-1h2l-1-1h1l1-1h1v-1h4v1h1v4h1v1h1v3h1v1h-1l-1 1v2l-1 1 1-2h1v1l-1 1v3l1-2h2l-1-1v-1h1v1h1v-1h1v3l1 1v1-5 1h2l1 1v-1h-1l-1-1v-2l1-1h4v1h2l2 1v3l-1 1v1l-1 1v1-1l1-1 1-1h2l1 1v1h-1l-1 1h-1l1 1v3h-1v1l1-1v-2l1-1 1-1h1v1l-1 2v-1h1v-1 1h1v2h1l-1-1v-1h1v-1h3v1h1l1 1v2l-1 1h-1l-1 1-1 1h1v-1l1-1h1l1 1 1-1h1v2h-1v1l-1 1h-1v1h-1v1h1v-2h1v1l-1 3h1v-1l1-2v-1l1-1v-1h4v1h1l1 1v1l-1 1h-1l-1 1h-1l-1 1v1h1v-1h1l1-1h1v1l-1 1h1l1-1v-1l1-1v1h1l1 2v2h-3v1h-2v1l1-1h1l1 1h2l1 1h1v2h-2v-1 1h-1v-1h-3l-1 1h4v2l-1 1v-1h-4l2 1h2v2l1-1 1 1h2l-1 1v2h1v-1l1-1v3l-1 1h1v-1l1-1v1h1v2-2h1v-1h1v1h-1v1h2l1 1 1 1h-1v1h-2l1 1h2v-1h1l1 1v1h-1v1l-1 1h1l1-1h1l1 1 1-1 1 1 1 1v1h-1v-1h-1v1h1v1l-1 1h-1v-1h-1l1 1h-1l1 1h1v1h-2 1v1l-1 1h-2v-1 1h-1 1v5h-1v-1h-2v-2h1-1v2h-1v-2h-1v-2h-1v-1h1v-1h1v-1l1-1h-1v1h-1v1h-2v-1l1-1-1 1h-1v-1h-1v-2h-2v2l-1-1-1-1v1h1v2h1v1h-2v-1l-1-1-1 1h1l1 1h-1l1 1v2l1-1 1 1 1 1h-1v1h1v2l1 1v-1h1v1h1v-1 1h1v1-1l1 1-1 1h1v1h-1l1 1v1h1v1h1v4h-1v-3h-1v3l1 1v1h-1v2-1h-1v-1h-1v-1h-1v1-1h-1v-1 1l-1-1v-1l-1 1v-1l-1-1v-1h-1 1v2l-2-2h-2l1 1v1h1v1h1v1h1l1 1 1 1 1 1v1h1v1h1v1h-1l1 1h-2l-1-1h-1l-3-1h-1l-1-1-1-1v-1h-3v-1h-1l-1-1h1-2v-1l-1-1h1v-1h1-1v-1h-2v-1h-1v-1l-1-1v-1h-1v-2h-1v1-1h-1v1-1h-1v-1h-1v2h-3v1h-2v1h-1v-1h-2l-1-1v-1h-1v-1h1v-2h2v-2h2l1 1h1l1 1v2-2l-1-1h2v-1h2l1-1h1v-2h-1l-1-1v-2l1-1 1-1h1v-1h1v-1l1-1v-1h1v-2l-1-2v-1l-1-1v-1l-1-1v-1h-1v-3h-1v1h-1l-1-1v-3 1h-1v1l-1-1v1h-1l-1 1h-1v-2l1-1v1h1v-1h1v-1h-1v-1h-1l-1-1v-1h1l-1-1v1h-2 1v-2h-2v-3h-2v-1h-1v-1h-1v-1h-1v2h1l1 1v2h-1l-1 1h-1l-1-1h-1l-1-1h-2v1h1l1 1v1l-2-2-1 1h-2l-1-1h-5v-1h-2l-1 1-1-1v-1h-1v-2 1h-1l-1-1v1h1-2v1h-1l-1-1v-1h-1l-1-2-1-1v-2h2l1 1h3v-1h-1v-1h-1l-2-1h-1l-1-1h-1v-2l-1-1v-2l1-1v-5l1-1v-4h1v-1l1-1v-1l1-1 1-1 1-1 2-1h5v2l-1 1-1 1v1l-1 1-1 3v4h1v7l1 1 1 1 1 1v1l-1 1h-1l-1 1h-1zm20-24h4l2 1v1l1 1 1 1v1h1v3h-2l-3-1h-1l-1 1h-1l-1 1-1-1-1-1v-3h-1l-1-1v-4h3l1 1zm-73 7v-1l-1-1-1-1v-1l-1-1h-1v-2l1-1h4l1 1v5h-1v2h-1zm-26 3h2l1-1v1-2h1v-2h1l1 1h1l2 2h1l-1 1v2h-1v1l1-1 1-1v1l1-1 1-1h1v-1l-1-1-1-1v-1h2l1 1 1 1 1 1v1h1v4l1 3v1l1 1 1-1 1-1-1-2v-1l-1-1v-3l-1-5v-1h1v-1h1v1h3l1 2h1v1l1 1v2l1 1v1l1 4v1l1 1v4l-1 1v1h1l1 1v2l1 1h1l1 1v-2l1 2h1l1 2h1v1h1l1 1v2h-1v1-1h-1v-1 1h-1l-1-1-1 1v2l-1-1h-1v-1 2h1v2h-1 1v-1l1-1h2v1h-1v1h1v2h-1l-1 1h-4l-1-1v1h-2v-2h-3v-1h-1v-2l-1 1v1l-1 1v1h-3l-1 1-1 1h-1l-2 1h-3l-1 1h-5v-1l-1-1v-4h-6v-1h-2v-1l-1-1v-1l-1-1v-2l2-1h3l2-1h1l1 1h6l1-1h-1l-1-1-3-1v-1h-3l-1 1h-8l-2-3v-1l1-1h2l1-1h1l1-1h1-1v-1h2-1l-3 1h-4v-1h1v-1h-2l-1-1v-2l1-2h1v-2h-1v-1h1v-1l2-2 1-1h1l1-1 3-2 2-1h1v1h1v4h-1v2h-1zm50-3l-1-1v-1h1v-1 1h1v2h-1zm62 163h-1l-1 1-1 1h-1v1h-2v1-1h-2v1l1-1h1l-1 1h1v-1 1h-6v1h-1v1h-1v1h2v1h-3v1h-1 1-4v1h-1v1-1 1h-2v1-1l-1 1v-2h1v-1l1-1v-1h1v-1h1v-4h1v-2h-1v-1h1v1h1l-1 1h2v1h1v-1h1v-1 1-1h-1v-2 1-1h-1v-1 1-1h-1v-1h-2v-1 1h-1v-1h-6v-1h-1v-2h-1v-2l-1-1h1v-1h-3l-1-1v-2h-1v-1h-1v1-1h-4 1v1h-1v1h-1l1-1v-1h-1v2h-1 1v-1l-1 1h-1 1-1v2h-2v-1h-3l-1 1v-1h-1v-1h-1v1l-1-1-1-1h-1l-1 1v-1h-3v-3h-1v2h-78v-1 1h-1v-2h1-1v-1 1h-1l-1-1v-1 1h1-1v-3 2h-1l-1-1-1-1v-3 2h-1v-1l-1 1h-2l1-1h1-2v-1 1-1h-3v-1h-1l1-1v-1h2-2v1h-1v-4h3v1-1h-1v-2h1l-1-1v1l-1 2h-1v2h-1v-1l1-1-1-1h1-1v1-3h1-1v1l-1-1v-1l-1-1h-1v-1h1v-1 1l1 1h2-1v-1l-1 1v-3l-1 1-1 1v1l-1 1v-1l-1-1h-1v-1l1-1v-1h1-2v-2l1-1v-2h1v-2 2h-1v1-5h-1v-1h-1l-1-1h-1v-1h-1v-1h-1v-1h-1l1-1-1-1-1-1v-2h-1v-1l-1-1h1l-1-1-1-1-1-1v-1h-1v-1h-1v-2h-1v-1l-1 1h-2l1 1h-1v2h-2v1h-1v-2h-1v-1h-1v-1h-1v-1l-1-1h-1v-1h1v-1h-2l-1 1h-1v-1 1h-1l-1-1V86h3l2 1 2 1 1 1v1h1l2 1 1 1h3l1 1v-1h-1v-1h-1 1v-1h-1l1-2v1l1-1v-1h3-1v-1h1v-1 1h1v2l-1 1h1l1-1h1v-1h1v-1h1v-1h2l1-1h1v-2h3l1-1v2l-2 2h-1v1h-2l-1 1h-1v1l-1 1h-1v1l-1 1v1h-1l1 1v-1h2-1v-2h1l1-1h1v-2h1v1l1-1v2l1-1v-1l1-1 1-1 1-1h2v-1 1h-1v1h1l1-1 1-1v-1l1-1h1l-1-1h-1v-1l1-1v1l1 1h1v1l1 1v3h1l1 2 1 1h2v-1l-1-1v-1l1-1v-1h1-1l1-1h1v3h1v1l-1 1v1h2l1-1v-2l1-1h2l1 1h1l1 1h1l1 2h2l2 1h1v1h1v1h3v1h3v-1h2v1h1l1 1 1 1 1 1v2h-2l-1 1v1h-1l1 1h2v1h6l1-1h3l1-1h1l1 1v1h2v2h1v-2 1l1 1 1 1v1l-1 1v-1h-1 1v2h1v1h1v1l1 1-1-1v-3h1v1-2l-1-1v-2h-1v-3h1l-1-1h3v-1h1v-1h1v-1h1v-1h-1l-1 1v1h-3v1h-2l-1-1 1-2h1l1-1 2-1h3l1 1v2l1 1v1h1v1h4l1 1v1h2v1-1h1l1 1 1-1h5l1 1 1-1h1l-1-1v-1l1 1 1 1v1h2v-2h-3v-1h-1 1v-1h-1v-1h2v-1h2v1l1 1h1v-1 1l-1 1h1v-1h2-1v4l-1 1 1 1v1h1v1l1-1v2h-2l-1-1v1l2 2v1-1l-1-1v-1h2v-1l1-1-1-1v-2h-1v-1l1-2h2l1-1v-1h1v-1l1-1h1-1v-3h-1v2h-2v-1h1v-1l1-1h-1v-2h2v1l1-1h-1v-1h-2v-1h-3v-1h-1v-1h-1v-1l-1-1v-2l1-1v-1h1v-1l-1 1-1-1v-5h1v-1h1v1h1v-2h-1v-1l1-1 1-1 1-1h1v2h2v2h1l1 2v4h1v1h1v2l1 1h-1 1v1-1l1 1v1h-1l-1-1-1 1h2v1l-1 1-1 1-1 1h1v-1l1 1 1 1 1-1h1l-1 1h3l-1 1v1h-1v-1 1l1 1 1 1v5h1v1-1l1-1v-4l1-1v-1h1l1 1 1 1v1h1v5l-1-1v4l1 1 1 2v1h1v1l1-1v-1h1v-3h1l1-2v-5h3l-1-1v-1h1v-1h-1l-1-1v-5h3l1 1h4l1 1-1 1 1 1v1h3v1l-1 1h-1v1h2v2h-1v1h-3v1h1v2-1h1v1h-1v1h1v1l1 1v1h1v1l-1 2v1h-1l-1 1v1l-1 1h-1l-1 1h-1v-1l-1-1-1-1v-1h-2v1l1-1v1l1 1h1v2l1 1h-2v1l-1-1h-1v-1h-1v-1h-4l1 1h-1 1v1h1l1 1v1h-1l-1 2-1 1v1h-3l-1-1h-1v-1h-1l-1-1h-1v-1h-1l1 1h-1l-1-1h-3l1 1 1-1 1 1h2v1l1 2h1l2 1h4v1l-1 1v1l-2 3v1l-1 1h-2v-1 1h-2v-1h-1v1h1v1l-1-1v2l-1 1v-1 1h-2l-1-1h-1v-1l-1 1-1-1h-1l-1-1-1-1v2h1v-1 1l2 1h1l-1 1h1v-1h2v1h1l1 1v3h-1v1h-1l-1-1h-1v2h1-2v3-1h-1l-1-1 1 1v1h-1v1h-1 1v1l-1 1-1 1v2l-1 1v2h-1v8h-1 1v1h1v3-1l1-1h2l1 1v3l1 1v4l-1 1h1v-1h2l2-1h2l1 1h1l1 1h2v1h1v1h1v1l1 1h1l1 1h1l1 1h1l1 1h1v1l-1 1 1-1h7l1 1v10l1 1v1h1v1h-1 1v1h2v1h1v2l-1 1 1-1h1v1h1v1h1v1-1h-1v-2h1v-1h1v2l1-1v-1h-1v-1h1v-2h1l-1-1v-2h-1v-6h-1v-2h-1l2-1h1l1-1 1-1h1l1-2 1-1v-1h1v-7l-1-1v-1l-1-1-1-1v-1h-1l-1-1v-3h1v-1h1v-1h-1 1v-1h1-1l1-1v-1h-1v-1h1l-1-1v-3l-1 1v-1h-1 1v-1l1-1v-3h-1v-4l1-1h2l1 1 2 1h1-1 3v1-1h2v-1h2v1h1v1h1v1h1v1h1v1h-1 1v-1l1 1-1 1h1v1l1 1h3v1h1v-1h1v2h-1v4h-2 2v1l1 1-1 1v1h1v3h-1v-1l-1 1h1l1-1h2l1 1v4h-2 2v-1l1-1v-1 2l1-1v2-1l1-1h1l1-1v-1h1l1 1v1-4h1v1-3h1v1-1h-1v-2h1v-1l1-1v-1l1 1v1h-1 2v2-1 1h1v1h-1v1h2v1h-2 2v1h1v2h-1v1-1l1 1 1-1v2h-1v1h-1l1-1h2v1h1v2h-1v1h1v1h1l1 1v2h-2l-1-1h-1l1 1h1l1 1h-1 2l-1 1h1v1h-1 1v1h1v-1 1h1v1-1h1l-1 1h1v1h-1v2l1-1h2v1h-1v1l1-1v-1h1v1h1v1h2l1 1h1v1h-2v1h-1v1h-2l-1 1h-2v1h-1 1v1h1v-1h1l1-1h1v-1h2v-1h-1 3v1l1 1h-1v1h-1 1v1-1h1v-1h1l1 1 1 1v3l-1 1h2v1h-1 1v1l-1 1h-1l-1 1-1 1h-3l-1 1v-1 1h-1l-1 1v1h-1v1h-1v1h-4l-1 1-1-1h-13v1h-1l-1 2v1h-2l-1 1-1 1h-1v1l-1 1v1h-2l-1-1h-1 1l1 1h1v1l-1 1v1h-1l-1 1v1h-1v1h-2v1h-1l-1 1h-1v1h-1v1h-1v1h-2 1v1h-1l-1 1zM194 79v-1h-1v-1h1v2zm38 3h1v1h-2v-1h1zm-30 4h1v-1 1l1 1h1l1 1v2l1 1v1h2-1v1h-1v1h-1v1h-1l-1-1-1 1-1-1-1-1h-1v-1h-2v-1 1h-1v-1h-1v-1h2l1-1v-1h1-1v-1h1-1v-1h1v1h1-1v-2l1-1h1l1 1h-1v1zm51-1v1h-2l1 1h-1v-1h-2v-1h2v-1 1h1l1-1v1zm4 0v1l-1 1h-1v-1h1v-1h1zm28 2l-1-1h1v-1l1 1h-1v1zM86 86l-1 1v-1h1zm122 0v2h-1v-2 2-1h-1 1v-1h1zm-16 2v-1h-1v-1h1v2zm68 2h-1v-3l1 1h1l-1 1v1zm-37-2v1h-1v-1h1v-1 1zm31 4h-1v-1h1v-1l1-1v-1h1v1l-1 1v2h-1zm-32-3h-1v-1h1v1zm-27 2v-1 1zm0 1v1h-1l-1-1 1-1h1v1zm-5 2h-1v-1l1-1v2zm76 2l-1-1h-1v-1l1-1v1h1v2zm-83-1l-1 1v-1h-1v-1h1l1 1zm71 2v-1h1v1h-1zm10-1l1 1v6h-1l-1 1h-3l-1-1v-4l1-1 1-1v-1h3zm-31 5v-1h-1v-3l1-1v5zm-64-2v-1 1zm100 1h-2l-1-1v-1h3l1 1v1h-1zm-99-1h-1 1zm3 4v1-1h-1v-2h1v2zm127 2v1l-1-1h2-1zm-127 1v1-1zm70 5v1-1h-1 1zm-2 3v1h1-1v-1l-1 1v-2h-1v-1h1v1h1v1zm-3 2v-1h-1v-2h1v3zm0 2v-1h1l1 1 1 1h1v1h1l1 1 1 1h1v1l1 2-1 1h4v1h1v1h-1l-1 1v1h-1v-1l-2-1h-1l-1-1v-1h-1v-1h-1v1h-1v1l-1 1v1h-1v1l-1 1h-1v1h-1v-1l-1-3h-2l-1 1h-1v-1l1-1 1-1h1v-2l-1-1 1-1v-7h1v-1l1-1v1h1v3l1 1zm20 8v1l-1-1h1zm3 4h-1l-1-1v-1l1 1h1v1zm-4 0h1v2h-1l-1-1v-1h-1 1v-1h1v1zm-11 3v1l-1 1-1 1-1 1h-1l-1 1v-1l-1-1 1-1 1-2h4zm32 2h-1v-1h-1v-1h1l1 1v1h1-1zm-10 0l-1-1h-1 2v1zm26 0h1v1h-1v-1zm-41 1v4h-1v1l-1-1v-4h2zm40 3h1v1h-1v-1zm-78 0h-1 1zm79 3h-1l-1-1 1-1h1v2zm-39 4h1v-1 1h-1zm29 3v-1l1-1 1 1h-1l-1 1zm11-1h-1v-1l1 1zm-44 3h1-1zm0 1h-1 1zm31 3v1h-1v-1h1zm-30 9v-1 1zm51-1v1h-1v-1h1zm-50 5v-1 1zm1 2v2h-1l1-1v-1l-1 2h-1l1-1-1 1h-1l1-1 1-1v-1 1-2h1v2zm-3 0h1v-1h1-1v1h-1zm4 1h-1v-1h1v-1 2zm50 0h-1 1zm-196 6h1v-1 1h-1zm-1 2v-1h1l-1 1zm2 2v1-1h-1v1-1h1zm1 4v-1h-1v-1h1v1l1 1h-1zm141-1h-1 1zm-139 1v-1 1zm2 1v3-2h-1v-1h-1l1-1v-1 1h1v1zm134 1h-1v-1h-2v-1h2l1 1v1zm-136-1v-1h-1 1v1zm1 2h-1v-1h1v1zm2 1h-1v-1h1-1v-1h1v2zm137 2v-1h-1 1v1zm68 0h-1l1-1v1zm-204 2h-1v-1h1v1zm203-1v1h-1v3h-1v1l-1 1v2h-1v1h1v-1h1v-1h2v1l-1 1h-1 1l-1 1h1v-1l1 1v-1 1h1v-1 2-1h1-1 2v-1 1h3v1h-1v1h-1 1v1h-1 1v1h-1 2v-1h1v1h-1v1h-1 1-1v2h1v-1l1-1h1l-1 1v2l1-1v1l-1 1v2h-2v-1h1-1l1-1h-1v1l-1 1v-2l1-1v-1h-1v-1 1l-1 1h-1l-1 1v1h-2l1-1h1v-1h1v-1h-2v1h-2l1-1h-2v1h-1l-1-1h-4l-1 1v-1h-1v-1h1v-1l1-1h1-1v-1l-1 1v-1h1l1-1v-1h1v1-3l1 1v-1h-1l1-2v-1l1-1v-1h1v-2h1v-1h1l1-1v1h1v-1zm-201 4l1 1h2l1 1h1v1l1 1v1h1v1h1l1 1 1 1v1h1v1h-3l-1-1h-1v-1l1-1h-1v1h-1l-1-1v-1h-2v-1h1-1v-1h-1v-1 1h-1v-1h-2v-2h1-2v-2h1v1h2zm6 3h-1v-2l1 1v1zm0 0v-1 1zm177 4h-3l-2-1v-1l-2-1 1-1 1 1h2v1h1l2 1 1 1h-1zm-14 16h-1v-1h-1 1-1v-6l-1-1-1-1v1h-2v-1h-1v1l-1 1v1h-1v3l-1 1-1 1h1-1v1h-2v1h-9 1v-1h1l1-1h1v-1l1-1 1-1 1-1h1v-1h3l1-1v-1h1v-1l1-1 1-1 1-1 1-1h1v-1h1l1-1h2l1-1h2l1-1 2 1h1l1 1h-1l1 1-1 1h-1v1h-1v1h-1l-1-1h-2v1-1l1 1h1l1 1h1v-1 1h1v1l-1 1v1h1v3h3v1h-1 1v1-1h1v1h6v1l-1 1h2-2v1h-2l-1 1h-3 1v1h-2v-1 1h-1l1 1h-1l-1 1-1 1v1h-2v-1h-1v-3h1-1 1v-1h1-1 1l2-2h1l1 1v-1h2l-1-1h-3v1-1l1-1v-1h-1l1 1h-1l-1 1-1 1h-2l1-1h-1v1l-1 1v-1 1h-1v-1zM553 347h1v1h1v1h1v-1h1v1h1v-1h1l1 1 1 1h1v1h1v1h-1v2h1v1h1l-1 1-2 1v1l-1 1v1h-1v5h-1v2h-1v2h1v6l1 1v3l1 1h1v2l1 1v1h-3l-1 1h-1v1h-1v7h-1 1v1l1 1v1h2v-1h1v4h-1v-1h-1v1h-1v-2h-1v-1h-1l-1-1h-1v-1h-1v-1 1h-1v1l-1-1h-3v-2l-1 1h-2v-1l-1-1v1h-5v-3l-1-1v-7h-3v-1h-2l-1 1v1h-1v1h-3v1h-1v-1l-1 1v-1l-1-1v-1h-1 1l-1-1v-2h-1v-1h-10l-1 1-1-1h1v-2l1-1h2v-1h2v2l1-1v1-1h1v-1h1v-1h1l1-1v-4h1v-1h1v-2h1l1-1 1-1v-5h1v-3l1-1v-4l1-1v-1h4v1h1v1h5l1-1h2l1-1h4v-1h2l2 1 1-1z"/><path d="M540 330v1l1 1h1v4l1 1h1v1h2v1h1v1l1 1h1v1h1v2h1l1 1v1h1v1l-1-1-1 1-2-1h-2v1h-4l-1 1h-2l-1 1h-5v-1h-1v-1h-4v1l-1 1v2h-6v3l-1 1v-3h-1l-1-1-1-1v-2h-1v-4h-1 1v-1h1v-2h1v-1h2l1-1 1 1 1-1h2l1-1h2v-1h1-1v-1h3v-1h2l1-1 1-1v-1h1v-1h1v-1z"/><path d="M528 351v2l-1 1v3h-1v5l-1 1-1 1h-1v2h-1v1h-1v4l-1 1h-1v1h-1v1h-1v1-1l-1 1v-2h-2v1h-2v-1l-1 1h-1v1h-1v-2h-1v-1h-1v-1h2v-2h-1v-2l1 1v-1l1 1 1-1v-1h1v1l1 1h1v-1h1v1h1v-5h1l-1-1h-1v-3h1v-2h-3v-2h7v1h1v-1l1-1v-3zM503 210v1l-1 1h2v1-1h1v2-1h-1v2-1l-1 1-1-1v1l-1 1v1-1h-1v-2h-1v1l-1 1h-3v-2h-1l-1 1h1-1v-2h1v-1h1v-1h1l-1-1h2v-1 1h2v-1h1-1 3zM460 332h2v1l1 1h1l1-1h2v1h1v1-1 2h1v2h-1v3h-1v4h1v2h-1v-1 1h-1l-1-1h-2 2-2l-1 1v-1h-1v1h1-3l-1 1h-2l-1 1v-4l-1-1-1-1h-1v-1h1v-1l-1-1h1v-3h1v-2h-1v-3h4v-1h1v1h1-1zM287 426l1 1v1l-1 1v1h-1l-1 1h-1v1h-1l1 1v1h-1l1 1v2h-1v1h1v1l-1 1h-1v2l-1 1-1 1v2h-1v1l1 1v2h-1v1l-1 1h1-1v3h1-1v1h1v3h1v4h-1v2h-1v4l-1 1-1 1v4l1 1v2h-1v1h-1v4h-1v1h1-1v6h1l-1 1v4h1-1v1h1v1h-1 1v1h-1v1l2 1v1h-2v1h1v1h1l-1 1-1 1h1v1h-1v1h1v2h-1v2l-1 1v1l-1 1h1v2h-1v2h-1v2h-2v1h1v4l1 1v-1h2v5l1 1h1l2 1h5l1 1h1-2v-1l-1 1v1h-1l-2 1h-1v5h-3v-1h-1v-2h1v2-1l1-1h1v-2l-2 1h-1v1h-1v1l-1-1v-2h2v-1h1v1h1v-1h-3v1h-1v1h-1l-1-1h1l1-1h-1l-1 1h-1v-3h-1 1l1 1v-1h2v-1h1v2-3l-1-1h-1 1l1 1v1h-2v1l-1-1v-1l-1 1v-1l1-2h-2l-1-1-1-1h1v-2h1v1l1 1 1 1v-2 1h-1v-1l-1-1-1-1h1v-1l1 1v-1h-1v-1h2l-1-1v-2 2h-1v-7h-1l1-1v1h1l-1-1v-1l1-2h-3l-1 1-1-1 1-1 1-1v-2h3v-2 1h1l-1 1v2-1l1 1-1 1h1v-4l1-1 1 1v-1h-1v-1h1l1-1v-1l-1-1h-1v-1l1-1v-4l1-1v-1l1 1v-1l-1-1v-1h1v-1 1h-2v-1 1h-1v1l-1-1v-1l-1-1v-1l1-1v-2l1-1v-7h-1v-2h1l1-1v-2l1-1v-2l1-1v-1l1-1v-3h1v-11l1-1v-2l-1-1v-1h1v-4h1v-3l1-1v-1h-1v-1h1v-8l1-1v-10l-1-2v-1h2v-2h1v1h1v3h1v1h1l-1 1v2l1 1h-1v1h1v1l1 1v3h1v1z"/><path d="M269 495v1h-1v-1h-1v-1h1v-4h2v2h-1v1l1 1-1 1zm0 2v1l-1-1v1-1h1zm0 3h-1v1h1v2h-1v-1h-1v-1l-1-1h2v-2l1 1v1zm2 1h-1v-2h1v1h1-1v1zm-2 0v-1 1zm-2 4h-1v-1h1v-1 1h1l-1 1zm-2 8h1-1zm-1 4v-3l1 1v2h-1zm3 2v4h-1v-3 1h-1v1h-1v-1l1-1h-1v-1h1v1-2h1-1v-1h2v2z"/><path d="M265 518v1h-1v-1l1-1v1zm2 10v1h-2v1-2h2zm1 3h-1v-1 1h1zm15 4v10h-2l-1-1v1h-1v-1l-1 1-1-1h-3v-1h3v-1l1 1h-1 2-1v-1h-1v-2h1-1l1-1v3h1v1h1v-1l1 1v1l1-1-3-2v-2h1l1-1h-3v-2h1v-1h-1 2v-1h1l1 1 1-1v1zm-16 1h2v1h1l1 1h-2v-1l-1-1v1-1h-1l-1-1h1v1zm4 2v1h2v2h-2 1v-1h-1v1h-1v-1l-1-1v-1h1l1 1v-1z"/><path d="M276 541h1v1h-1v1-1h-2v-1h-1l1-1h1v1h1zm1 4h1l1 1h-1v1-1h-1l-1-1h-1 2zm3 0l3 1v-1h1v1h-1v1h1l1 1v1h-1v-1h-1l-1-1h1-1v-1h-1v1l1 1h-1v-1h-1v-1h-1 1v-1z"/><path d="M288 546v1h-3v-1h-1l1-1h2v1h1zm1 1v-1 1zm-2 2v1-1h-1 1zm-1 1h-1 1zM519 340v1h-1v2h-1v1h-1 1v4h1v2l1 1 1 1h1v4h-1v-1h-17v-1l1-1v-1l-1-1v-1h-2v-2h-1v-1l1-1v-2h1v-1h1v-1h1v-1 1h1l1-1v1h1v1h1v-1l1-1v-1h1v-3h1l1-1v-2h1v-1l1-1v-2h1v-1h2v-3h-1v-1l-1-1h2v1l1 1v5l1 1v1h1-4l-1 1 1 1 1 1h1v1l1 1v1h1zM787 304v1l-1 1v2h-1v1h-3l-1-1v-2h1v-1h1-1v-1h5zm-1-3h-1 1zm6-2h1-1zm3-3h-1v-1l1 1zm13-6l-1 1v-1h1zm4-3v1-1zm7-13h-1 1zm0-1v1-1zm0 0h-1 1zm-1-5h-2v-1h1v1h1zm4-85h1l1 1h1v1h3v1-1l1 1v1h1v2h1v3h1v3l1 1v2h1v3h3v1h3v1l1 1h1v1l1 1v3h5v-1h1v-1h3l1-1h1v4h-1l-1 1h1l-1 1v3h-1v2h-1v1l-1 1v1h-1v-1h-3v1h-1l-1 1h1v7h-2v1h-1v-1h-1v2h-1v1h-3l-1 1 1 1v1h-2v-1h-2v-1 1h-1v1h-1v1l-1 1h-1v1h-2v1h-1v1l-1 1h-1v-1 1h-2l-2 1v1h-1v1h-2v1-1l1-1 1-1h-2l1-1v-1h1v-1h1v-2h-1v-1 1h-3v1l-1 1-2 1-1 1v1l-1 1h-4v3h1l2 1h1v3h2v-1h1l1-1h-1 3v1h4v2h-3v1h-2v2h-1v-1h-1v2h-1v1h-1v1l-1 1h1v1h2v1h1v3l1 1v2h2v1l1 1v1h-1l-1-1h-1v-1h-1l-1 1h2l1 1 1 1h1v1h-1v1h-2v1h-2 1v1h1l1-1h1v1h1l1 1h-2v1l1-1v2h-1v3-1l-1 1v-1 1h-1v1-1 2h-1v1h-1v2h-1v-1 1-1 2h-1v1-1h-1l1 1h1l-1 1 1 1h-1v-1 1-1h-1v1h1-1v1h-1v1h-2v2h-1l-1 1h1-2v1h-1v1h-1l-1 1-1-1v1h-5v-1h-1v1h1v1h-1v1h-1v-1 1h-1v1l-1-1v1l-1-1v1h-1l-1 1v-1h-1v1h-1v1h-1 1v1h-1 1v1h-2 1-1v-4h-1v1h-1v-1h-1v-1h-1v1h-4v-1h-1v-2h1l-1-1h-3v-1h-2v2h-5v1-1h-2v1h-2v3h1l-1 1v-1h-1v-1h-2v1h-1v-1h-1v-1h-2v-1l1-1v-1h-1l-1-1v-2h-3v-4h1v-1h1v-1h1v-5h-1l-1-1v-2h-2v1-1h-3l1-1v-1h-1v1-2h-1l-1 1h-2v-1h-1v1h-1v1h-2v1h-1v1h-1v1h-3l-1-1v1h-1v-1h-4v1h-1v1l-1 1v-3h-1v1h-4l-1-1v1h-1v-1h-1v1-1h-2v-1h-1l-1-1h-1v-1l-1-1v1h-1v-1h-1v-1h-1l-1-1h-1v-1h-2v1h-1v-1h-1v-1h-1l-1-1h-1l-1-1v-1 1h-1v-2l-1-1v-1h2v-3h-1v-3h1-1v-1h-1l-1-1v-2h-3v-1h-2l-1-1v-2h-1v-1 1l-1-1h-2v-1h1l1-1h-1v-4h-3v-2h-1l1-1v-2h1l1-1h1v-1h2v1h2v-1 1l1-1v-2h4l1-1 1-1h1v-1h2v-1h1v-2l1-1h-1 1v-1h1-1v-3h-1v-2l1-1h-1 1-2v-1h2v-1h6v-1h-1v-2l1-1v-2l1-1v-1h1l1 1h3v1-1h2v-6h3v-2l1-1h2l1 1h-1l1 1v1h1v1h1l1 1h3v1l1 1v2h1v5h-1v1h1v1h2v1h6v1h1l1 1 1 1h2-1v1h1v1l1 1v1h1v2h15v1h1v1h2l1 1h4v1h2v-1h2l1-1h1l1-1h7l1-1h2v-1l1-1v-1h2v-1h1v-1h-1v-4h3l1 1h2v-1h2v-2h4v-1h1v-1l1-1 1-1v1h1v-1h2v-1h4l1 1v-3h-1v-1h-1v-1h-1v-1h-3v1h-2v-1h-2v1h-1l-1-1v-1h1v-2l1-1v-1l1-1v-2h1v1h4v-1l1-1h2v-1h-1v-1h1v-2h1v-1l1-1v-1l1-1 1-1v-1h-1l1-1h-1v-1l-1 1v-2h1l1-1v-1h4v-1 1h1l1-1h1zM276 328h-2l-1 2h-1v1l-1 1v2h-1v1h2v2h1v2l-1 1h1v1h5l1 1v-1 1h1v1h1v1h4v-1h1l1 1-1 1v2l-1 1h1v3h1v1h-1v1h-1 1v1h1v1h1-1l1 1v2-2h-1v-1h-1v1h-1v-1h-1v1h1-5v2h2v1h-3v2l1 1h1v5l-1 1v5h-1v-1h-1l-1-1h1v-1h1v-2h-1l-1-1h-3l-1 1h-1v-1 1h-1v-2h-1v-1h-1v-1h-2v-2h-1v-1h-3v-1h-4l-1-1h-1v-1h-1l-1-1-1-1h1v-2h2v-1h1v-1h1v-1l1-1h-1v-1h-1 1v-3l-1-1h1v-1h-1v-1h1v-1h-1v-1h-1v-1h1v-1 1l1-1v-2h-1 1l1 1v1h1l-1-1v-1h1l1-1v-1h1l1-1v-2h-1 1v-1h1v-1h2v1-1h1v-1h2l2-1h1v-1h1v-1h2v2zm-19 26h-1 1zM241 330v1l1 1 1 1v1h1-1v2h1-1v2-1h-2v-2h-1v-1h-2v-1h-1v-1 1h1l-1 1-1-1h-1v-3h4l1 1h1zM246 294l1 1h5v1h1v1h2l2 1 1 1v-1l1 1v1-1h1v1h2v1h2l-1 1h3l1 1h1v1h-10l1-1h1-1v-1h-2l-1-1-1-1v-1h-4v-1h-3v-1 1l-1-1h-1 1v-1h-4v1h-3v1h-1v1-1h-1v1-1h1v-1l1-1 2-1h3v-1h1zm7 2h-1 1zm2 0h1v1h-1v-1zm2 1h-1 1zm0 1v-1 1zm1 0h-1 1zm-14 1l-1 1v-1h-1 1v-1h1v1zM283 327h-1v-1 1zM773 390v1l-1-1zM573 255l-2 1v1h-1l-1 1h-2v-2h1v-1h4v-1h1zM517 195h2v1h2v1-1h1v1h-1v1h1v1h1v-1h1-1v-1h1v1h2l-1 1h2v1h1l1 1h-1v1h-1v1h-1v1h-2v1h-1l-1-1v1h-1l-1-1h-2v1h-3v-1h-2v-1l-1-1h-1v-3h-1v-1h1v-1h3v-1h1l1-1h1v1z"/><path d="M499 177v-1h1-1v1h1-1zm4 0h1v2h1l1 1 1-1v1l-1 1h2l1-1h1l1-1h1l1 1h1l1 1v1h1v5h1v5l1 1v2h-1v1-1h-1l-1 1h-1v1h-3v1h-1v1h1v3h1l1 1v1h2v1h-1v1-1 1h-1v1h-1v2h1v1h-1v-1h-3l-1 1h-3v1h-1l1-1h-2l-1-1h-3 1-1v1h-1l-1-1v-2h1v-2l1-1-1-1h-3l-1-1v-2h-1v-2h1v-1h-1v-2h-1 1v-4h2v-2h1v-1h-1v-1h1v-4l1-1h1l1 1v1-1h1v1-2h2l1 1-1-1h-1v-2h-1v-1h1v-1l-1-1h3zm-3 1h-1l1-1v1zm14 1v1-1 1h-1v-2h1v1zm-6 0h-1v-1 1h1zm8 2v1h-1v-2 1h1zM597 329v1h-4v-2h1v-1l1-1h1v-1h1v1h1v1h-1v1h-2v1h1v-1h1z"/><path d="M503 177h-3v-3h-1v-6h1v1-1h1v-1h1v1-2h-1v2h-2v-1l1-1h1v-1h2v-1l1-1h1v-1h1l-1 1v6h2-1v1h-1v1l-1 1v1h-1v3h-1 1v1zm4-12h-1 1v-1 1zm4 7v1h-1v1h1v1h-1v2h-1v-2h-2v-2h1v-1l1-1v2-2h2v1zm-5 0h-1v-1l1 1zm0 1v3h-1l-1-1v-1l1-1h1zm12 3h-1v-1h1v1zm-12 1v-1l1-1v1l-1 1zm-2 0h-1v-1h1v1zm7-1l-1 1v-1h1zm-6 1v-1 1zm3 0h1v1h-1l-1-1v-1l1 1zM304 318v-1h-1 1zM274 310v-1h1-1v-1h1v-1h-1 1v-2h-1 1v-1h2l1 1h2v1h2-2v1h3l1 1v1h-8v2h-1v-1zM500 250l-1 1v7h-1v1l-1 1v1l1 1v1h1v2h1v1h1v1l1 1v4h1l-1 1 1 1v2h1l-1 2 1 1v1l-1 1v2h1v1h-1v1h-1v1h1v1l1 1v2h2l1 1h1l1 1v1l-1 1-1 1-2 1-1 1-2 1-1 1-2 1-1 1h-1l-1 1v1h-1l-1 1h-1v1l-1 1h-4v1h-3v-3h-2l-1-1h-1l-1-1h-1v-2h-1l-1-1-1-1h-1l-1-1h-1l-1-1-1-1h-1v-1l-1-1h-1l-1-1-1-1h-1l-1-1-1-1h-1v-1h-2v-1h-1l-1-1h-1v-1h-1l-1-1h-1v-1h-1v-1h-1v-5l1-1h1v-1h2v-1h1v1-1h3v-1h1l1-1v-1h2l1-1h1l-1-1v-1h1l1-1h1v-1h4l1-1-1-1v-1h-1v-6h-1v-1h2v-1h1v-1h3v-1h1v-1h2v-1h5v-1h6v1h1l1-1h1l1-1v1h2v-1h1v1h2zM265 361h-1v1h1v2h-1v1l-1 1-1 1-1 1h-1l-1 1h-2v1h-1 1v1h-1v-1 2h-1v2h-1v1h-1v-2h-3v-1h1v-2h-1 2v-3 1h-1v-1 1h-2v-4l1-1h1-1v-2h1v-2h1v-1h2l1-1 1 1h1v1h1l1 1h4v1z"/><path d="M251 369v-1l1 1zM572 269v1l1 1v2l1 1v1h-1v4h-1v1h-1v-1h-1v-1h-1v-2l-1-1v-1l-1-1v3l1 1v1h1v1h1v3h1v2l1 2 1 1v1h1l1 2v1l1 1v4h2v1l1 1h-15v-1 1h-18v-25h-1v-1h1v-4h5l1 1h2v1h5l1-1h1v-1h2l-1 1v-1h4v1l-1-1v1h1v1-1h1v1h1l1-1v1l1-1zM555 153v1h-1v1l-1 1v5h1v1h-1v1h-4v-1h-1v-1h-3l-1 1v-1l1-1v-1h-1v1l-1-1h-1v-5h2v-1h4l-1-1h1l2 1h5zm-15 4h-1v-1h-1 1v-1h1v2zm1 1v-1 1zm-2 0h2v1h-1v1h-2v1-1h-1v-1h1l-1-1h2zM452 282v4h-10v8h-2v1h-1v5h-11v2-4h1v-1h1v-2h1-1l1-1v-1h1v-1l-1 1v-1h1l1-2h1v-2l1-1v-2h1v-1h1l1-1v-1l1-1h13zM597 325h-1v1h-1l-1-1-1-1v-1h-1l-1-1-1-1h-1v-1h-6v-1h-1v2h-1v-1h-1v1h-2v-3h1v-4h1v-1h1v-1h1v-1h2v-1l1 2v1l1 1v2h1v2h1v-1 1l1 1h1l1 1 1 1 1 1 1 1h1v1h1v1h1zm-9-10v1-1zm1 2h-1v-1h1v1zM471 226v1h1v1-1 1h2v1-1l1 1v-1 1h3v-1l1 1h1v1h5v2h-1l-2 2-2 1h-1l-1 1v1l-1 1-1 1-1 2v1l1 1v1l-1 1h-1v3h-3v1l-1 1v1l-1-1-1 1h-6l-1 1v1h-2v-1h-1v-2l-1-1h-2v-3h1v-1h-1v-1l1-1v-1l-1-1v-1h1l1-1h-1v-1h1v-2l-1-1h1v-1h1v-1h-1l1-1h-5v-1h-1v1h-1v-1h1l-1-1v-2h-1v-1h1v-1l1 1v-1h1v-1h3v1l1-1 1 1v-1h1l1 1h9l1 1v-1h1zm17 14l-1-1h1v1zm-3 0h1-1v1h-2v-1l1-1h1v1zm-5 3h-1 1v-1 1zm0 1v-1 1z"/><path d="M584 320h5v1h1l1 1 1 1h1v1l1 1 1 1-1 1v1h-1v2h3v3h1v1h1v1h1v1h2l1 1h3l1 1h2v1h3-1l-1 1-1 1-1 1-1 1-1 1-1 1-1 1v1h-5v1h-1l-1 1h-2v1h-3v-1h-1l-1 1h-1l-1 1h-4l-1-1h-1v-1h-4v-1h-1v-2h-1v-1h-1v-2h-1v-1l-1-1h-1v-1l-1-1h-1v-2h3v-6h1v-1 1h1v-3l1-1v-1h1v-1h1v-1h1v-3h2v-1h1v1h1v-2h1v1zM557 91h-1v1h1v1l-1 1v3l1 1h1l1 1 1 1v2l-1 1v1h-1v2h-1v1h1v2h1v2l1 1v3h-1l1 1h-1v2h1v1h-1v2h1v3h1v1h1v1l-1 1-1 1 1 1 1 1 1 1 1 1v3l-1 1v1l-1 1h-1v1l-1 1-1 1v1l-1 1h-1v1h-1v1l-1 1-1 1h-2l-1 1h-1v-1h1-1v1h-1v-1 1h-1v1-1l-1 1h-2v1h-3l-1 1h-1 1v-1h-1v-1 1h-1v-2h-1l-1-1h-1v-6h1-1v-5h-1v-2l1-1v-1h1-1v-1h3v-1h-1 1v-2h1v-1h1l1-1v-1h1v-1l1-1v-1l1-1 1-1 1 1v-5l-1-1h-1v-1h-1l-1-1v-1l-1-1v-1l1-1v-3l-1-1v-1h1l-1-1v-5h-1v-1l-1-1-1-1h-1l-1-1-1-1-1-1v-1h-1v-1h1v1-2h2v1l1 1v1l1 1h2v1l1-1h1v-1l1 1h1v1h1l1-1v-1h1v-4l1-2v-1h1v-1l1-1 1 1 1-1 1-1 1 1v1h1l1 1 1 1v2l-1 1v2zm-11 29h-1v-1h1v1zm-11 11h1v1l-1-1zm1 16h-1l1-1v1zm2 1h-1v-1 1h1zm0 0h1v1h-1 1-1v-1zm-1 1l-1 1v-1h1zM458 137h-1 1l-1-1 1 1zm-1 0v2l-1-1v-1h1zm-1 1h-1 1zm1 2v-1 1zm0 2v-1h-1 1v1zM484 196h1v1h1v1h2v1h2-1v1h1l1 1h2v1-1h1v1l1 1h3l1 1-1 1v2h-1v3h-2l1 1h-1v1h-1v1h-1v2h1-1l1-1h1v2h1-1v2h1v1h-2l1 1v1h1-1v2h2v2h-1l-1 1v1h-4v-1h-4v-1 1l-2 1-1 1 1 1v1h-4v-1h-2l-1-1v1h-3v-1 1l-1-1v1-1h-2v-1 1-1h-1v-1h1v-4l1-1h-1l1-2v-1h1v2-2h-1v-1h-1 1v-2h-1l-1-1v-1h-1v-2h1-2v-1h-1v-1h-2l-1-1h-1v1-1h-1v-1h1-1v-1 1h1v-1h-1v-1h3v-1h1l1 1v1l1-1h3l-1-1v-3h1l1 1h4l-1-1 2-1 1-1h1v-3l1-1h2v-1 2h1zm-11 20l-1 1v-1h1zm30 12l-1 1h1v2l-1 1v2l-1-1-1-1v-3h2v-1h1zM513 355v2h3v2h-1v3h1l1 1h-1v5h-1v-1h-1v1h-1l-1-1v-1h-1v1l-1 1-1-1v1l-1-1v2h1v2h-2v1-1h-1v-1l-1-1h-1l-1-1h1-1v-1h-1v-1h1-1v-1h-1 2-2v-2h-1 2v-3l1 1 1-1h-2v-1h1v-1h5v-3zM473 196v1h-1v-1h1zm-9-12h1-1v1h-1v-1h1zm-6-9h1v2h1v1h-1 1l1 1h-1v-1 2h-1v1h-2v-2h-1v1h-2l-1-1 1-1 1-1v-1h1v-1h2zm4-1h-1v-1h1v1zm-3-2v1h-1v-1 1-1h1zm0 0v-1h1l-1 1zm1-2h-2l1-1-1-1h1v1h1v1zm-3-2h1-1zm-1-2h-1v-2l1 2zm3-2v1h1l-1 1v-1h-1v-1h-1v-1h2v1zm-3-1h-1 1zm2-4v1h-1 1v1h-1v1h-1l1-1h-1v-1h1v-1h1v-1l1 1h-1zm9-1v1l-1 1-1 1v1l-1 1h2l1-1v1h4v1h-1v3l-1 1-1 1h-1 1v1l-1 1h-2 1l1 1v-1h2l1 1 1 1v1l1 1v3h2v1l1 1h1l-1 1 1 1v1h-1v-1h-1 1l1 2h1v1l-1 1 1 1v-1h3l1 1v2l-1 1v1l-1-1v1l-1 1v1h-1 3v1l-1 1h-2v1h-4l-1-1v1h-2v1l-1-1v1l-1-1h-2v2h-4v1h-2v-1h1l1-1 1-1v-1h1v-1h3l1-1v-1h1-1l-1 1h-1l-1-1h-1l-1-1v1h-2v-1l1-1h1l1-1 1-1h-1v-1h1-1v-1h-1v1-1h1v-1l1-1h2v1-1h1l-1-1 1-1h-1v-1h1v-1h-2v-3h1v-1h-1v1h-4v1-1h-1v-1h1v-2h1v-1h-1v-1h1v-1h-1v-1 2h-1v-1l1-1-1 1v1l-1 2v1-5l1-1v-2l-1 1v1l-1-1v-1h1-1l1-1v-4h1v-1 1-2h1v-2h5zm1-1h-1 1zm-1 0l-1-1h1v1zm0-2v1h1-2l1-1zm2-1h-1 1zm-1 1v-1h-1 1v1zm4-8l1 1v2h-1v1-2h-1v-1h1v-1h-1 1zm1 0v-1 1zm1-2v1h-1v-1 1l1-1zM606 232v2h1v1h-2l-1-1h-3v1l-1-1v1h-3v-1h-1v-1h-1v1-1h-1l-1 1v-1h-1 1v-3l-1-1-1-1v-1h-2l-1-1h4v1h5v1h1l1 1h4v1h1v1h1v1zM331 350h-1v2h-1v1l-1 1v1h-2v-1 1h-1v-1 1h-2v-1l1-1v-3h-1v-4h1v-1h2l1 1h1l1 1v1-1l1 1v1-1h1v1z"/><path d="M469 201v1h-1zM476 330v2h1v3-1 3h1v2l-1 1h1v1h-1v1h1v1h1v2h-3l-1 1h-2l-1 1h-1l-1 1v-1h-3 1v-2h-1v-4h1v-3h1v-2h-1v-6h7zM415 1v3h1l1-2V1h1l1 1h1l1 1v1l1 1h-1l-1-1h-1l-1 1v2l1 1 1 1h1v1h1l1-1h1v1l1 1v2l-1 1v2h-1v-1h-1l-1-1h-4v1l-2 2-1-1v-1h-1v1h-1v1h1v1h1l1 2v1l1 1 1-1h1v1h1l1 1v3l1 1v3l1 2v1h-1v1h-1v-1h-1l-1-1-1 2h-1v1l-1 1v-1h-2 1v1h2l1-1v1l1 1v1l-1 1v1l1-1v-1l1-2h1v2l1 2 1 1v3h-3l-1 1h-3l-1-1 1-1v-2h-1v2h-1v1h1v1h-1v1l1 1h3l2 1v2l-1 2h-3v1l-1 1h-1l-2-1v-1l-2-1-1-2v1h-2l-1-1v-1h-1l1 1 1 2v1h-1l-1 1v1h-2v-1h-2l-1-1 1 1 1 1v1h-2v1l1-1h2v-1h3v-1l1-1h3v1l1 1h1v1l1 1h1l1 1v5h-1v3-1h-1l-1-1-2-1v-1h-1v-2l-1-2v-1h-1l-1 1-2 1h-1l-1 1h2l1-1h1l1-1v1l1 2v1h-1l-1 1h2l1 1 1 1h1l1 1v1h2v2h1l-1 2v2-1h1v-1h1v9h-2v-3 1l-1 2h-2l-1-1v-1l-1-1v-2l-1-1-1-1-1-1-1-1-1-1h-3v1h3l1 1v2l-1 1h-1l-1 1h-3v-1h-2v1h1v2l-1 1-2 1h2l1 1h1l3-1v1l-1 1h-1v1l-1 1h1l1-1v-1h2l2-1h2l2 1 1 1h5-1v1h-1v1h-1v1h-2v1h-1v1l-1 1h-1v1h-1 1l-1 1-1 1v1h-1v1h-2v1h-2l-1 1h-2l-1 1h-3l-1 1h-1v1h-2l-1-1-1-1-1-1v1h1v1h-1l1 1v1h-1v1l-1 1h-1l-1 1v3l-1 1-1 2v1-1l-1 1v1l-2 1h-1v-1h-1l1 1v1h-1v1l-1 1v-1h-1v1h-2v1h-1v1l-1-1 1-1v-1l1-1v-1l-1-1h-1v1h1l-1 1v2l-1-1 1 1v1h-2l-1 1h-3l2 1v1h-1v1h-3v2-1h1v2h1v1l-1 1-1 1v-1h-2l1 1h2v3l-1 1v1h-1v1h1-1v1h-2v-1 1l1 1-1 1h-3 1v1h2l-1 1v2h1v1l-1 1h-1 1v2l-1 2v2l-1 1h-2 1v1h1v2h-2v1h-2v-1l1-1h-1v1h-1l-1-1v-1h1v-2l-1 1v1l-1-1h-1l-1-1 1-1v-2 1h-1l-1 1h-1l-1 1v-1h-1v1h-1v-1l1-1h-2v-1h-1l-1-1v-2l-1-1h1v-1h1-2v1-1h-1 1v-1h-1l-1-1v-3l1-1-1 1v1h-1v-2h-1v-1l-1-1-1-2 1-1-1-1h1l1-1h2-1v-1 1h-2l-1 1v-2l1-1v-1h1v1-1h2v1h1l-1-1v-1h-1v-1l-1-1v-1 3h1-1v1h-1v-1 1l-1 1v1l-1 1v-4l-1-2v-1l-1-1h1l1-1 1-1h2v-1h-1l-1 1-1 1-1 1h-1v-1h-1l-1-2 1-1h-1v-1h1l2-2h1v-2h1l1-1-1 1h-1l-1 2h-1v1h-1v1h-2v-2l1-1v-1h1v-1h2-2v-1h-2v-3l1-1h1v-1l1-1h1l1 1h2l2 1-2-1 1-1h-6l-1 2h-1v-2h1v-1l1-1v-1h2l1 1h1l1-1v-2l-1 1v1h-3v-1h-2l1-1v-2h2l2 1h2v-2 1h-1v-3h3v-1h-2v-3l1-1h1v-1l-1-1h1-2l-1-1v1h-1l-2-1-1-1-1-1h-2l-1-1-1-1v-2h3v1l1-1 1 1h1l2 2h1l1 1h1v-1h-1l-1-1v-3h-1v-1l1 1h1v-1h-1v-1h-5v-3h1l2-1h1v-1l-1 1h-3v1h-1v-2h1v-1l-1 1v-3l-1-1v-2 3l1 1v1l-1 1v1h-1l1 1h-1v1h-3l-1-1v-4l1-1 1-2v-1l-1 2h-1v-1l1-1h-1v-1h1l1-1v-3l-1-1v1h-1v-2l1-1v-2h-1l-1 1v-2h-1l1-1v-4h-1v-1h-3 1v-1h1v-3h1l-1-1-1-1v-1l-1-1v-1l-1-1h-1v-2h-1v-1h-1l1-1v-3h-1l-1-1-1-1h-1l-1-1-2-1-1-1h-1l-1-1h-2l-1-1h-2v1h-1v-1h-1v1h-1v1h-2l-1-1h-1v1h-1l-1-1v2l1 1h-1l-3-1h-1l-1-1-1-2h-1v-1l2-2 1-1h1-3l-2-1v-3l-1 1-1 1h-1v-2l-1-1v-1h1v-1h5l1-1V8h6l1 1-1-1 1-1V5h-1V4h-1l-1 1-1 1h-2V5h-1v1h-1v1h-1l-1-1-1-1V4h-1V3l1-1h-3l-1-1z"/><path d="M275 9h-1l-1-1h-1V7h3v2zm149 15l-1 1-1-5v-4h1v1l1 3v4zm1 7l1 2v1h1v2h-4v-4h2v-1zM321 58v1l-1 1h-1v-1 1l-1-1h1v-1h2zm5 16h-1l-1-1h1v-1h1v2zm79 1v1h-1l1 1-2 1v1h-1l-1-1h-1l-2 1h-1v-1h1v-3l1 1h2l1-1 1-1h1v1h1zm-74 1h-1v-1h1v1zm-3 7l1 1h1v3l-2 1h-1l-1 1h-1l-1-1v-1h1-1v-1h-2v-3l1 1v-1l-1-1v-1l1-1h1l2 1 1 1 1 1zm5 4h-1v-3h2l-1 1v2zm39 29h-1v-1h1v1zm-26 30h-1l1-1v1zM429 324v-1l1 1v-1h3-4 3l1-1h1l1 1h2v1h-2v-1h-3l-1 1zM444 326v1h2v1-1h3l1-1h1v2l1 1v1h1v2h1-1v3h1v2h-1v3h-1v-1l-1 1v1h-1v-1h-1 1v-1h-1v-2h-2l-1 1v-3l-1-1v-1h-4v1h-1v1h-1v1-1h-1v-1h-1 1l-1-1h-1l-1-1v-1l-1-1v1-2h1v-1h2v-2h1-1v-1h2v1zM304 315h-1v-1h1v1zm-1 1l-1-1h1v1zM500 350h1v1l-1 1v-2zm8 5v3h-6v-1h1v-3 1h5zM550 233h1v1h-1v2h-3v-1 1l-1-1-1 1v-1l-1 1h-1v1l1 1h-2 1v1l-1-1v1h-1v-1l-1-1h-1v2l1 1v1h1v1l-1-1v1h1l-1 1h-1 2v1h1v1h1v2l-1-1h-1v2h1-2v2h1v2-1h-1v-1h-1v2-1l-1-1h-1v1-1l-1-1h1v-1h-1v-1h-1v-1h1v-1 1h1v-1h1l1 1h2v-1h-5v-1 1h-1v-1l-1-1h1v-1l-1 1v-1h-1v-1l-1-1h1v-1h1v-2h1v-1h2v-1h3v-1h3v-1h2v1h4v-2l1 1zm-5 4v-1 1zm3 0h-1 1zm-1 2v1-1 1h-1v-1h1zm-15 2l-1-1h1v1zm18 0v1h1-1v1l-1-1h1-2 1v-1h1zm-7 1h-1 1zm-1 1l1 1h1v2h1-1v-1h-2v-1h-1v-1h-1 1v-1l1 1zm-8 1v-1 1zm15 1v1-1l-1-1h1v1zm-15 0v-1 1zm0 0v1h-1v-1h1v-1 1zm12 2h-1v-1h1v1zm-11 0h-1v-1 1h1zm16 0h1-2 1zm-7 1v-1 1zm3 0h-1v-1h1v1zm2 0v-1h1l-1 1zm-5 0v1-1h1-1zm1 1h-1 1zm3 1h-1v-1h1v1zm-1-1v1h-1v-1h1zm5 1h-1v-1h1v1zm-4 0h1-1zm4 1h-1l1-1h1-1v1zm-5 0v-1 1zm-2-1v1h-1 1v-1zm2 2v-1 1zm7 1v-1h1v1h-1zm-13-1v1h-1v-1h1zm11 3v-1 1zm-9 0h4v1l1-1v1h2v-1 1l-1 1-1-1v1h-3v-1h-3v-2h1v1zM226 310v4l-1 1v1h2l1 1h-1v1h-1v1h-1 1v1h-2l1 1h-1l-1 1h-4v-1h-1l-1-1v-3h1v-1h4v-2h-1v-1h-1v-1h-1 2v-2h4z"/><path d="M437 325v1h1-1v2h-2v1h-1v1h-1v-1h-1 1v-1h1-2 1v-1h1-2v1h-1v-1h-1l-1-1h4v-1h4zm-5 4v-1 1zm-1 0v-1 1zm1 0v1-1zm-1 1h-1 1zM315 345v2h-2v1h1-1v2l1 1v1h1v1h1v2h1v1h-1v-1h-1v1h-2v1h-1v-1 1h-1v1-1h-2v-1h-1v-6h1l-1-1v-1h-1v-1h1-1v-1h-2l-1-1v-3h2l1-1h-1v-1h-1 1v-1h1v-1h1l-1-1h1v1-1 1h2l1 1v1h1v1l-1 1v1l1-1h2v1h1zM797 296v1h-1v-1h1zm-1 1h-1 1zm0 0h1-1zM235 314v1-1zm-2 1l1-1-1 1zm10 4h-4v1-1 1h-1v-1h-1v2h-1l-1 1-1-1v1h-2v1h1l-1 1h-2v-1h-1 1v-1h-3v-1h-1v-1h-1 1v-1h-1 1v-1h1v-1h2v-1h10l2 1h-1l1 1h1-1 1l1 1zM522 214h1v1h1v1h1l1 1h2v-1h1v3h1-1v1h-1l-1-1h-1v1-1h-4v1h-1v-1h-1v2l1 1v1h1v1l1 1 1 1v1h1v1-1h-1l-1-1h-2v-1h-1l-1-1v-1h-1 1v-1h-1v-2l-1-1h-1l-1 1v1l-1-1v-2h3v-1 1h2v-1h1v-2h1v-1h1-1 1zm-5 6h-1l1-1v1zm0 1h-1v-2 2h1zm1 0h-1 1zm1 2h-1v-1l-1-1h1v1l1 1zm0 1h-1v-1l1 1zm0 0h-1v-1l1 1zm4 3h-1v-1h1v1zm1 0h-2 2zm1 1h1l1 1h1v1h-1v-1h-1l-1-1h-1 2-1zm-2 0h1-1zm2 1h1-1v-1 1zM272 304h-1 1zm2 1h1v2h-1 1v1h-1v1h1-1v1-1h-5v1l-1-1h-1v-1h2l2 1h1v-1h1l-1-1v-1l-1-1h-1v-1h2l1 1h1zm-2 3h-1l-1-1h1l1 1z"/><path d="M538 206l1 1h1v2h-2v1l-1 1v1h-1v2h-1v1h-2v1-1h-2v1h-3v1h-2l-1-1h-1v-1h-1v-1h-1v-2h-1 1v-2h1v-1h-1 2v-1h1v1h3l1-1 1-1h3v-1l1-1 1 1 1-1v1zM821 392v-1h1v-1 1h-1v1zm-3-1h-1l1-1v1zm-5-4v1h1l1 1v1h-2v-1h-1v-1h-2v-1h3zm14-1v2h-1v1h-2v1h-1v-2l1-1h2v-1h1zm-24-1v1h-2v-1h1v-1h2l-1 1zm22-1l-1 1v-1h1zm-1 0h-1v1h-1v-1h2zm2 0h1l-2 1v-1h1zm-6 1h-1l-1 1h-4l-1-1v1h-1v-2 1h1v-1h3v1h4v-1h1-1 1v1h-1zm-12-1h2v1h-1v1h-1v-1 1h-4v-1l1-1v1l1-1v1h2-1v-1h-1 2zm-8 0h1l-1 1h-1v1-1h-1v-1h-1 2v-1l1 1zm32-2v1h-3v-1h3zm33 2h-3l1-1v-1h3v1h-1v1zm-21-1v-1h1v-1h1-1v2h-1zm-49-2h-3v-1h4v1h-1zm58-2v1h-1v-1h1-1v-1h1v1zm-76-1h2v1l1-1v1h1v1h5l1-1 1 1h4v2h1l1 1 1-1h1l1 1v2h1-3l-1-1h-8l-1-1h-1l-1-1h-2l-1 1h-1l-1-1h-3v-1l-1-1h-3 1v-1h1v-2h1v1h2v-1l1 1zm72-1l-1 1v-1h1zm5 0v2h-1v-1h-1 1v-2h1v1zm-34-1h-1v-2h1v2zm2-2h-1v1l1 1h-1v1h-1v-2h1v-2l1 1zm29-1h-1v-1 1h1zm-29-1l-1 1v-1h1zm-19-1h-1l1-1v1zm-1 1l-1-1h1v-1 2zm30-2h1v1h-1v1h-1v-1h-1v-1l1-1h1v1zm8-1h2v1h1v2l-1-1h-1v-1h-2v1-1h-2v1h-1v-1h-1v1-2h5zm-82 1h-1v-1h1v1zm22-1v1h-2v-2h2v1zm-23 0v-1h-1 1v1zm-1-2v1-1h-1 1zm74 1h-1v-2 1l1 1zm12-2v1h-1l-1-1h2zm-15 0h1-2l-1 1v-1l1-1 1 1zm29-1h2v1h2-4v-1zm-74 0l-1 1v-1h1zm-8 1v2h2-1v1h-2v-2h-2v-1h1v-1 1h1v-1l1 1zm49 0h-1v-1h1v1zm13 0h-3v-1h3v1zm-14-2v1-1l1 1h-2 1-1v-1h1zm-68 2h-1v-3l1 1v1l1 1h-1zm90-1h-1v-2h1v2zm12-2h2v1h1-2v-1h-1zm-6 0h2v1l1 1h-1v2h1v2-1h1v2h3v-1h1v-1l1-1h2v-1l1-1h1l2 1h1v1h3v1h3v11h-1v1h1v6h-1l-1-1-1-1v-1 1h-2v-1 1h-1v-3h-1 1-1v-1h1-1v-1h-1v-2h-1v-1l-2-1h-1l-1-1h-1l-1-1h-3v-1h-2v-1h-1v-1l1-1h-1v2h-1v1h-1l-1-1h1v-1h-1l-1-1h-1 1v-1l1 1 1-1h3v-1h-1 1-5l-1-1v-1h-2v-2h2v-1h3l1 1zm-81-1v1-1h-1 1zm65 0v1h1-2v-1h1zm9-1h1v1h-1v-1h-1 1v1h-2l1-1h1zm-73 0v1h1-2v-1h1zm0 0h-1v-1l1 1zm-5-2h-1l-1-1h2v1zm4-1h1l-1 1v-1h-1 1zm-20-1l1 1h1v1h-1l-1-1-1-1h1zm15 0h-2v-1l1 1h1zm62 1v1h-1v1h-10v-1h-1v1h-1v3l1 1 1 1h1v-1h1v-1l1 1 1-1h3v1-1h-1v1h-1v1h-1l-1 1h-2 1v1h1v1l1 1v2h1v1h1v1h-2v1h-2v-2h-1l-1-1v-1h1v-1l-1-1-1 1h-1l1 1v5h-1l1 1v1-1h-1l-1 1h-1v-3h1v-2l-1-1h-1v-1h-1v-2h1v-1h1v-4h1v-3l1-1v-1h1v1-1h1v-1h2v1h3l1 1v-1h1l1 1h1l1-1v-1h1l1-1v2h-1zm-65-3l1 1h-2l1-1zm73 4h1v-1h1v-1h1v1h-1v1h1v1h1-3v2l1 1h-1v-1h-1v-4l-1-1h1v-2h1v3h-1v1zm2-4v-1h1v1h-1zm-29-6v1h-1v-1h1zm-4 0h3v2h-2 1v1h1v1h1v2h-1 1v1h1v1h1v1h1l-1 1h-1v-1h-1v1h-1v4h-1v1h-2 1v1h-1l-1 1h1v1h-1 1v1h-1 1-1v2h-1v1l-2 1-1 1v-2h-1v-1 1-1h-1l-1 1v-1h-1l-1-1v1h-2l-1 1v-2h-5v-3h-1 1v-2h-1l-1-1-1-1v-1h1-1v-5h1l1-1-1 1h1v1h1v1h1v1-1h4l1-1h6l1-1v-1l1-1v-2l1 1v-3l1-1h2zm-56-3h3v1h1v1l1 1v1h1v1h1l1 1h1v1h1v1h1v1h2v1h2v1h1v2h2v1h-1 2v-1 1h1v1h-1v2h1l1 1h1v2h1v2l1-1 1 1 1 1 1 1h-1v7h-1v-1h-1v1h-1v-1 1h-1l-1-1-1-1-1-1h-1v-1h-1l-1-1v-1l-1-1h-1v-1h-1v-1l-1-1v-1l-1-1v-1l-1-1v-1h-1v-1h-1v-1h-1v-2l-1-1v-1l-2-1h-1v-2h-1v-1l-1-1-1-1h-1l-1-1-1-1v-1l-1-1v-1h2v1h2zM456 176h-1v1l-1 1-1 1 1 1h2v-1h1v2h2-1v1l1 1v4h-1v2h-1v1h-1v-1 1h-2v1h-2 1l-1 1h-1l-1 1-1-1v1h-1l1-1h-2 1v-1h1-2v-1h1-1v-1h1v-1h2v-1h1-1v1l-1-1-1 1 1-1 1-1h-1l1-1h1-2v-1h-1v-1h1-1v-1h1-1v-2h4v-1h1v-1h-2l1-1v-1h1v-1h2v1h-1 1-1 1v-2h1v2zm-8 5v1-1h-1 1zM576 264v1h-2v2h1l-1 1v1h1v-1 4l-1 1h1-1v2-1l-1-1v-2l-1-1v-1l1-1v-1l1-1v-3h2v-1 1-1h1-1 1v2zM464 180l-1 1h-1l1-1v-1h1zM739 342v-1h1l-1 1zm0-2v1-1zm-1-1v-1 1zm-2-8h-1v-1h1v1zm-56-2v1-1zm57-2v1-1zm-1-2v-1 1zm0 4v-5h1l-1-1h1v4h-1v2zm-39-62v2h1v-1 1l1 1h1l1 1h1v1h1v1h-1v1l-1 1v2l1 1v-1 1h2v1h1v1h2v1h5l1 1 1 1h2v1h4l1 1v-1 1h1v-1l1 1v-5h1v-1h1v4h2v1h1l1-1h5v-2h-1v-1h3v-1h1v-1h1v-1h2v-1h1v-1h1v1h2l1-1h1v2-1h1v1l-1 1h3v2h-1v2h-3v1h-1l-1 1v2h-1v1l-1 1h1v1l-1 1v1l-1 1h-2v3h-1v3h-1v-2h-1v-3h-1v1h-1v1-1h-1v1-3h1v-1h1v-1h1v-1l-1-1h-6v-3h-1v1h-1v-2 1h-1 1-1v-1h-1v1l-1 1h1v1h1v1h1-2v1h-1v2l1-1v1h1v1l-1 1h1v3h1v3h-1v-1l-1 1h1-2v-2 2h-2l-1 1v2l-1 1v1h-1l-1 1h-1v-1l-1 1h1-1l-1 2h-1v1l-1 1-1 1h-1v1h-1l-1 1-1 1v1h-1l-1 1h-1v1h-3v7-1 4l-1 1v5h-2v2h-1v1h2-3v1h-1v1l-1 1h-2v-1l-1-1v-1h-1v-2 1-2h-1v-2l-1-1v-1l-1-1-1-1v-2l-1-1v-3h-1v-1l-1-1v-1l-1-1v-2l-1-2v-4h-1l1-1v-1l-1 1v-1h1-1v-7h1-2l1-1h-1 1v-1h-2 1v1h-1v1h1l-1 1v1h-2l-1 1h-1v-1h-1l-1-1v-1h-1v-1h-1v-1h-1 3v-1h1l1-1h-2v1h-1l-1-1h-1v-1h-1v-1h1v-1 1h-2v-1h2v-1h6v-3h-1v-1h-1v-3h-2v-2h1v-2h1v-1h1v1h4v-2h1v-1h1l1-1v-1l1-1v-1h1v-1l1-1 1-1v-3h1l1-1v-1h-2v-1h-1 1-1v-4h-1v-1h1-1v-1h1v-1h1v1h5v-1h2v-1h1l1-1h1v2l1 1h1v1h1-1v3h1v3h-2v1l1 1zM602 249v3h1v1h1v1h2-1v2l-1 1v1h-1v1h1l-1 1h1v1h1v2h1v1h1l1 1h1v1l1 1v3h1v2h1v1h-4v2h-1v1h-6l-1-1v-1h-1l-1-1-1-1h-1l-1-1v-1h-1l-1-1-1-1h-2l-1-1h-1l-1-1h-1v-1 1h-1v-1h1l-1-1v-2h1v-1h1l1-1 1-1h2v-1l1-1v-6h2v-1l1-1h1v-1 1l1-1v1h3v1l1-1z"/><path d="M602 240v1h1v1l1 1h3v-1h1v-1h1l1-1h1v1h1-1v3h1v1h1v2h1v1h3v1l1 1h1v1h3l4-1h2-1v-2h3v-2h4v-1h3v1h1v1h3l1 1h1v1l1 1h1v1h3v4l-1 1h1-1v2h-1l1 1h-1v2h1v1h-1v3l1 1v1h-1 1v1l1 1h1v2l-1 1-1 1v1l1 1 1 1v1l1 1h1v1h1v3h2-1v2h-2v1h-2v3h-1v1-1h-5v-1l-1 1-1-1h-3l-1-1h-1v-3l-1-1h-2v1h-2v1h-4l-1-1-1-1h-1v-1h-1l-1-1h-2v-1l-1-1v-2h-1v-1l-1-1v-1l-1-1-1 1-1-1h-1 1v-1h-1l1 1h-1v1h-1v-1h-1v-2h-1v-3l-1-1v-1h-1l-1-1h-1v-1h-1v-2h-1v-1h-1l1-1h-1v-1h1v-1l1-1v-2h1-2v-1h-1v-1h-1v-3l-1-1v-1h-1v-2h1-1v-4h-1 1l1-1h1zm32 43h-1v1h-2 1v-1h2zM432 111h1l1-1h1v1h-1v1h-1 1v1-1l1 1v1h-1v1l1-1h1v1l-1 1 1-1 1 1h1v1h-1v1h1-1l1 1v1h-1v1h-1v1-1 1h-1v1l-1 1h-1l-1 1h-1l-1 1v1h-2l-2 1v1h-1v1h-3l-1-1h-2v-1h-1 1v-1h-1v1-1h-6v-1h2v-1h1v-1h1-2v-1l1-1-1 1-1-1v-1h-5l1-1h3v-1h3v-1l-1 1h-1v-1l1-1h1l-1-1h-3l-1 1h-2v-1h-1 2v-1h-1v-1l1 1h2-1l-1-1h1l-1-1v-1l1 1v-1h1v1h1v1h1v-2h-1l-1-1h2-2v-1h2l1 1 1 1 1 1v2h-1 1v2l1 1v-2l1-1v1l1-1v-3l1 1v1h1v-2h3v1l1 1v1-1l-1-2h2v1h1v-1l1-1v1h2v-1l-1-1h1v-1h1v1h1zM514 214l-1 1h1v2h1v1h-1l1-1h-3v1h-2v1l1 1v1h-1v1l1 1 1 1 1 1h1v1l1 1v2l1 1 1 1h1v1h3v2h1l2 1 1 1 1 1h1v1h1v1l-1 1v-1l-1-1h-1l-1-1h-1v1l-1 1v1h1l1 1v2h-1l-1 1v1l-1 1h-1v-1l1-1h-1 1v-3l-1-1v-1h-1l-1-1v-1l-1-1v1h-1v-1h-1v-1l-1-1h-3l-1-2-1-1v-1h-2v-1l-1-1h-1v-4h-1l-1-1h-1l-1-1h-1v1h-1v1h-1v1h-1v-2h-2v-2h1-1v-1l-1-1h2v-1h-1v-1l1-1h2l1-1v-1h1v2h1v1-1l1-1v-1l1 1 1-1v1-2h1v1-2 1h2v-1h3v1h2l1 1h1zm-9 14v1h-1v-1h1zm-2 8v6h-2v1h-1v-1h-1v-1h1v-2h-1 1v-1h-1v-2h1l1-1h1v-1 1h1v1zm-3 6v1l-1-1h1zm20 3l-1 1v1l-1 1v1h1-1 1v1h-1v1h-1v-1h-1v-1h-2l-1-1h-2v-2h1v-1 1h1v-1 1h5l1-1h1zm-10 6l-1-1h1v1zM470 203v-1 1zM259 309h3v1h-2 1-2v1-1h-2v-1h-1 1v-1zM586 266l-1 1h-2l-1 1h-2v1h1v1h1v2l-1 1h-1l-1 1-1 1-1 1h-1l-1-1h-1v-2h1-1l1-1v-4h1v-4h1v1h1l1 1 1-1h1v-1h1l1-1h1l1-1v2l1 1h-1v1h1v-1zM880 223l1 1h1l1-1h1v1h-1v2h1v1-1h1v1h-2v1h-3l-1 1-1 1v2-1h-2l-1-1-1-1h-1l-1 1h-1v-1h-1v2h1v1h1v1l-1-1h-1v2h-1v-3l-1-1v-1h1l1-1v-2 1h3v-4l1-1v-2h-1v-2h1l1 1h1v2h1v1h1l1 1h1zm-8-4v-1 1zm0 0v1-1h1-1zm-5 12h1-1zm5 3h1v3l1 1v5h-1v2h-1v1h-1v1h1v3h-1v2h-1v1h1v1h-1v2h-1v1h-1v-1l1-1v-1h-1v2h-2v2h-1v-1l1-1h-1v1h-1v1h-3v-1h-1v1-2 1h-1v1h1v1h-1l-1 1v1h-1v1l-1-1h-1v-2h1v-1h-1l-1-1h-1v1h-3v1h-3v1h-4v-1h2v-1h1v-1h1v-1h1v-1h5v-1h3l-1 1h2v-1h1v-2h1v-1h1v-3h1v1h-1v1h1v1-1h1l1-1h1l1-1v-1h1l1-1v-2h1v-2h1v-3h-1 1v-3h1v-2l1 1v1-1l1 1v-2 1h-1v-2h1v1zm-8 13v-2h1l-1 1h1l-1 1zm-14 5v1-1zm17 5v1-1zm-28 2v-1 1zm16 0h-1v-1h1v1zm-2-1v1-1h-1 1zm0 1h1v2h-1v1h-3v1h-1v1h-1v-2h-1 1-2 1l1-1v-1h3v-1h2zm-14 1l-1-1h1v1zm9 0v-1 1zm-1 0h1-1zm-3 1h2v1h-1 1v3h-1v3l-1 1v-1 1l-1 1v-2h-1v1h1-2v-1h1-1v-2h1v-1h1-1v-2h-1v1h1-1l-1 1v-2 1h1v-1h-1v-1h1v-1h1l1-1 1 1zm-4 0v-1 1zm-1 2v-1h1-1v1zm-1 1v-1 1zm-1 0h1-1v1-1zm4 2v-1 1zm1-1h-1 1zm-2 3v-1 1zm3 4v-1h1v-1 1l-1 1zm-1 0h1-1zm-3 7h-1 1v-1h1l-1 1zm0 0h-1 1zm-3 5h-1v1h-1v-1h1l1-1v1zm-8 6h-1l1-1v1zm-3 0v1h-1l1-1zm-1 1h-1 1zM593 350v1l-1 1-1 1v11h1v2h-1v1h-1v1h-1v2h-1v1l-1 1v1l-1 1h-1v-1h-1v-1h-1l-1-1h-1v-1h1v-1h-2l-1-1h-1v-1h-2v-1h-1l-1-1h-1l-1-1h-1v-4h1v-2h1l1-1v-3l-1-1v-1h-1v-1h1-1v-1l-1-1h1v-1l1-1h1v-1h2v2h1l1 1h3v1h1l1 1h4l1-1h1l1-1h1v1zM701 231h-1v1h-2v1h-1l-1 1-1 1h-3l-1 1v1l-1 1v-1 1h-2v-1h-2v1h-1l-1 1h-1v2h-4v1h-1v-1l-1 1v-2h-1v1h-2v-1h-1v1-1 1h-1l-1-1v1h-1v-2h1l1-1h1v1h1v-1h4v-1h2l1-1h-1l-1-1h-1v-1h-1v-1 1h-1v1h-1v-1h-2v-1h1v-1h1v-1h1l-1-1v1-2h2v-1l1 1h2l1 1h1v-2l1-1h2v1h12v1h2v1h2v1zm-25 8h-1v-1 1h1zm-2 1v-1 1zM769 332v-1h-3 1v-1h-2v-2l-1-1v-2l-1-1v-1h1v-1l1-1h1v-1h4l1 1h2v1h1v-1h-1v-1h2l1 1v-1h1l1-1v1h-1v2h1v4h-1l-1 1h-1v1h-2v1l1 1v1l-1-1h-1l-1 1v-1 1h-2zM300 312v1-1zM842 230h1-1v1h-1v1h-1v4h-1v1h-1l-1 1-1 1h-1l-1 1v1h-1v1h2v1h1v2h-4v1h-1v1h-2v-1l-1 1h-1v-1h-1v-1l1-1h1v-1h-1l1-1v-1l-1-1h-2v-2h1v-1h2v-1h1l1-1v-1h1v-1h1v-1 1h2v1h2v-1l-1-1 1-1h3v-1h1v-2h1v1h1v1zm-16 11v-1h1l-1 1z"/><path d="M831 247v-1h1v-1h4v-1l1 2 1 1 1 2v4h1l-1 1v2h-3v1h-1v-1 1h-1v1-1h-1l1 1h-1v-1l-1 1-1 1v-1h-1 1v-1l-1-1h1v-2h1v-1h-1v-2h-1v-1h2v-1l-1-1v-1zm0 0v1-1zm0 4v1h-1v-1h1zm6 6h-1 1zm-2 0v1-1zm-5 0v1-1zm5 1h-1 1zm-5 1v-1h1l-1 1zm2 0h-1 1zm-2 4v-1l1-1h1v1l-1 1h-1zM536 231h-2v1-1h-1v-1h-1v-1h1v-1h1v-1h1v1h1v1h1v1h-1zM611 273v2-1l-1 1h1v2h1v1h-3v-2h-3 1v-1h1v-2h3zm0 1v-1l1 1h-1zM248 306h-1 1zM721 203h-1l-1 1v2h-3v6h-2v1-1h-3l-1-1h-1v1l-1 1v2l-1 1v2h1v1h-6v1h-2v1h2-1 1l-1 1v2h1v3h1-1v1h-1 1l-1 1v2-1h-2v-1h-2v-1h-12v-1h-2l-1 1v2h-1l-1-1h-2l-1-1v1h-2v2h-2v1h-1v1h-1l-1 1h-1v1l-1 1v1l-1-1v-1h-4v-3h-2v-4h-1v-1l-1-1-1-1h-1v1h-1l-1-1h-3v1h-2l-1-1v-1h-1v-1h-1v-1h-1v-1h-2v-1h-1l-1-1-1-1h-3l-1 1h-2l-1 1h-1v14h-2v-1l-1-1-1-1-1-1h-1l-1 1h-2v1h-1v-2h1v-1l-1-1v1l-1-1h-1v-1h-1v-1l-1-1v-2h-2v-2h2v1h2-1v-1h-1v-1l1-1h1v-1h2l1 1h1v-1h-1v-1l1-1v-4h-2l-1 1v-1h-2v-1l-1 1h-2v1h-1v1h-2v1l-1-1h-1v-1h1v-2h-1v-1l-1-1h-3v-2l-1-1v-2l1-1v-1h-1v-1l1-1v-1h1v-2l1 1 1 1v1h2v-2l-1-1h1v-1h1v-1h1v-1h2v-1h1v-1h2v1h1v-1h2v1h3l1 1h1v1l1 1v1-2h1l1 1 1 1 1-1 1-1h4v-1l1 1v-1l1 1h1v1h1l1 1h1v-2l1 1h3v-1l1-1v-1h-2v-1h-2v-1h-1v-1h2l1-1v-1l-1-1h1v-1h3v-1h-2v-2h1-2v-2h6v-1h3v-1h3v-1h4v-1h3v-1h1v-1h2v-1h2l1 1h3v1l1 2v1l-1 1h3v-1l1 1v1h1v-1l1 1h2l-1 1v2l1-1h2v-1h2v-1h1v-1h2l1-1h1-1v1h-1v1h1v1l1 1h1l1 1 1 1v1l1 1 1 2 1 1v1l1 2 1 1v2h1v-1h1v-1h2v1h-1 1v1h4v-1h3v1h1v2h1l1 1v1h1v1h3l1-1v1h1v2h1zm-104 18h-1v-1h1-1l1 1zM763 297v1h1v1h1v2h1v1h1v-1h1l1 1v1h1v2h-2v1h-1 1l1 1 1 1h1v1h1v1l1 1v1h1l1 1v1h1v1h1v2h1v2l-1 1h-1v1l-1-1h-2v1h1v1h-1v-1h-2v-1h1v-4l-1-1h-1v-4h-1v-1h-1v-1h-3v1h-2v-1h-1v1h-1v1h-2v-1h1v-1h-1l1-1v-3h-2v-2h-1v-1h1v-1l1-1h1v-1 1h1v1l1-1h-1v-3h1zM577 262h-1v1-1 1h-2 1v-1l1-2v-2h2l1 1-1 1v1l-1-1zM305 322h-1 1v-1zM503 212h-1l1-1zM700 333h1v1l1 1h1v1l1 1v1l1 1v1h1v2h-1v1h-1v1h-3l-1-1v-7l1-1v-1h1-2v-1zm0 3v-1 1zM452 340l1 1v1h-1v1h1l1 1 1 1v4h-1l-1-1-3-1v-1h-1l-2-2h-1v-1h-1l-1-1v-1l1-1 1-1v-1h1v-1h2v2h1v1h-1 1v1h1v-1l1-1zM557 449h-2v2h-1v-1h-1v-1h-1v-2h1v-1h1v-1h1l1-1 1 1 1 1v2zM551 173l-1 1v1h1v1h-2l-1 1v3h-1 1-2l-1 1-1 1v-1h-2v-1h-1v-1h-1v-2l-1-1h-2v-1h-2v-4l1-1h1l1-1h2l1 1v-1l1 1h3v-1h1v1h1l1 1h1v1l1 1h1zm-16 2v-2 2zM493 199v1h1v2-1h-1v1-1h-1v-2z"/><path d="M553 163v1h1v2l-1 1h1v1l1 1v2h-1v1h-2l-1 1h-1l-1-1v-1h-1l-1-1h-1v-1h-1v1h-3l-1-1v1l-1-1h-2l-1 1h-1l-1 1v-4h1v-2l1-2h1l1-1v1l2 1v2h2l1-1v-3l1-1h3v1h1v1zM546 268v4h-1v1h1v31h-3v1h-1l-1-1-2-1h-1l-2-1-1-1h-1l-2-1-1-1-1-1h-2l-1-1-1-1h-2l-1-1-1-1h-3l-1 1-1 1h-1l-1-1h-1v-1h-3l-2-1v-1l-1-1h-1l-1-1h-2v-2l-1-1v-1h-1v-1h1v-1h1v-1h-1v-2l1-1v-1l-1-1 1-2h-1v-2l-1-1 1-1h1v-1h1v-1l-1-1v-1h1v-1h1v-1h1l1-1v-2h1l1 1h6v1h2l1 1v2h1v1h3l2 1h1l1 1 1 1h3l1-1v-5l1-1h1l1-1h2v-1 1h3l1 1v1h2l1 1h2zM470 256v1h1v6h1v1l1 1-1 1h-4v1h-1l-1 1h-1v1l1 1h-1l-1 1h-2v1l-1 1h-1v1h-3v1-1h-1v1h-2v1h-1l-1 1v4h-13v-1h1l1-1h2l1-1 1-1h1v-1l1-1 1-1 1-1v-1l-1-1v-2l1-1 1-2v-1l1-1 1-1v-1h1l2-1h1l1-1 1-3 1-3h1l1-1v1l1 1v1h5v-1h1v1h1zM555 218v-6h-1v-1h-1v-2h-1v-2h-1v-1h4v1h2v1h1v3h1v1l1 1v2l-1-1h-2v3h-1v1zM530 226l1 1h1v1h1v1h-1v1h-1v-1 1h-1v2-1h-1l-1-1v-3h1v-1 1-1zM539 230v1h1v4h-3v1h-3v-1l-1-1v-1l1-1v-1h3v-1zM488 307v7l-1 1v2h-1v1l-1-1h-1v1h-5v1h-3l-1-1v1-1h-1l-1 1-1 1h-2v1h-2v2h-1v-1 2h-1l-1-1h-1v2h-1v2h-2v3h-1 1v1l-1 1h-2 1-1v-1h-1v1h-4 1-1v-2h-1v-1l-1-1v-2h-1l-1 1h-3v1-1h-2v-3h-1v-1h-1v-3l-1-1h2v-2h1l1 1h1v-1h1v1h1l1-1h11l1-1v-1l-1-1v-5l-1-1v-9h-1v-9h-1v-1h6l1 1 1 1h1l1 1 1 1h1l1 1v1h1l1 1 1 1h1l1 1h1l1 1 1 1h1v2h1l1 1h1l1 1h2v3h2zM794 297h1-1zM760 299v1h-1l-1 1v1h-1v1h-2v1h-1v1h-3l-1 1v2h-1v1h1v2h1v1h1v2h1v2h-1v1h1l-1 1h-1v1h1v1h1v1h1v4h1v4l-1 1-1 1v2h-1v-2l1-1v-6h-1v-2h-1v1-4 1-1h-1v-5h-1v-1l-1-1v1l-1 1h-1v-1 2h-1v1h-1v1h-1v-1h1l-1-1v1h-1v-1 1-2 1h-1v1h-1v-2h1v-5l-1-1v-2 1h-1v-1h-1 2l-1-1v-1h-2v-1 1l-1-1h1-1v-1 1l-1-1v-2h1v-2h1v-3h1v-3h2l1-1v-1l1-1v-1h-1l1-1v-1h1v-2l1-1h1v-1h3v-2h1v-2h2v2l1 1h1v5h-1v1h-1v1h-1v4h3v2l1 1h1v2h-1v1h2v1h1v1h1v-1h2zm-22 5v1-1zm1 1v1h1-1v-1zm0 3h-1v-1h1v1zm11 7h-1v-1h1v1zm-9 1v-1 1zm11 8v1-1zm0 2v-1 1zm-1 1v-1 1zm1 0v1-1h1-1zm0 1v1-1zm0 1h-1v-1h1v1zm0 1v1l-1-1h1zm-1 3h1-1zM803 200v2l-1 1v1l-1 1v2h-1v1l1 1h1v-1h2v1h2v-1h3v1h1v1h1v1h1v3l-1-1h-4v1h-2v1h-1v-1l-1 1-1 1v1h-1v1h-4v2h-2v1h-2l-1-1h-3v4h1v1h-1v1h-2v1l-1 1v1h-2l-1 1h-7l-1 1h-1l-1 1h-2v1h-2v-1h-4l-1-1h-2v-1h-1v-1h-15v-2h-1v-1l-1-1v-1h-1v-1h1-2l-1-1-1-1h-1v-1h-6v-1h-2v-1h-1v-1h1v-5h-1v-2l-1-1v-1h-1v1-1h-2l-1-1h-1v-1h-1v-1l-1-1h1l-1-1h1v-1h1v-1 1-1h1v1-1h1v1-1h1l1-1h-1l1-1h2v-1h1v-1h2v-1h2v-1 1h2v1h4v2h2v1-1h1v1-1h2v1h4v-1h1v-1h1v-1h-1v-2h-1l1-1v-1h1v-1l1-1v-1h1l1 1h1l1 1h3v1h3v4h1v1h2v1h1v-1l1 1v-1h3v-1h2v1h3v1h3v2h1v1h3l1 1h3l1-1h2l1-1h2v-1h1v-1h2v-1h2l1 1 1 1h1v-1h1zM305 320h-1 1-1v-1h1z"/><path d="M462 289h-5v1h1v9h1v9l1 1v5l1 1v1l-1 1h-11l-1 1h-1v-1h-1v1h-1l-1-1h-1v2h-2v-1h-1v-1h-1v-1h-1v-1h-2v-1h-6v2h-1v-1l1-1v-2l1-1v-3l-1-1v-2 1-4h-1v-1h-1v1-2h11v-5h1v-1h2v-8h10v-4h1v1h1v1h1l1 1h1v1h1l1 1h1v1h2v1zm-32 16v-1 1zM301 314v-1 1zM517 254h-1v-1zM574 393h-1v2h-1v1h1v3h1l1 1v1l1 1 1 1h-1v3l-1 1v2h-1v-1h-1v-1h-1v-2h1v-3h-3v-1l-1-1h-1v-3h1-1l1-1h1-1v-4h1-1v-1h1v-2h-1v-1h-1v-1l1 1h3l1 1v4zM203 286v1l-1 1v7l-1 1v1l1 1v1h1v1h-1l1-1h-1v-1 2l1 1v1l1 1 1 1v1l1 1v1h1v1-1 1h1-1 3v1h5l1-1h2v1h1v-1h1-1l1-1h-1 1l1-1v-1l1-1v-3h1l1-1h3v-1h3v1h1v-1h1v3h-1v1l-1 1h1-1v1-1 1h1l-1 1v3h-1v-2 1h-1v1-1l-1 1v1h-6v2h-2 1v1h1v1h1v2h-4v1h-1v3l-1-1-1-1-1-1-1-1h-1v-1h-1 1v1l-1-1h-2 1-1l-1 1h-1l-1 1h-2l-1-1h-1l-2-1h-1v-1h-3l-1-1h-1l-1-1h-1l-1-1-1-1h-2l-1-1h-1l-1-1-1-1h-1l-1-1h-1v-1h-1v-2h-1 1v-1h1-1v-1h1v-1l-1-1-1-1v-2h-1v-1l-1-1-1-1v-1h-1l-1-1v-1l-1-1-1-1h-1v-1h-2v-2l-1-1-1-1-1-1v-1l-2-1v-1l-1-1h-1v-1h-1v-2h-1v-2h-1v-4h-2v-1h-2l-1-1h-1 1v1l-1 1 1 1v3h1v1h1l1 3 1 1h1v2h1v1h1v1h1v2-1l1 1v2h1v2h1v3h2l1 1 1 1v2h-2l-1-1-1-1-1-1-1-1-1-1-1-1v-4h-1l-1-1h-2v-1h-1v-1h-1v-3h1v-1l-3-3h-1v-1h-1v-2h-1v-2h-1v-2h-1v-1h1-1v-1h-1v-1h3l1-1h3v1h1l1 1h2l1 1h1l2 1h1l1 1h8v-2h5v1h1v1h1l1 1v1h1l1 1v2h1v1h1l1 1h2v-1l1-1h4v1h1v1l1 1v1l1 1 1 1v1h1v2l1 1v1h2l1 1h2zm-49-18v-1 1zM161 290v-2 2zm5-1h-1 1zm-4 2v-1 1zm6 0h-1 1zm65 9h-1 1zm-1 3v-1 1zm-13 5h-1 1zM805 341h-1l1-1v1zm1 8h-5l-1 1v3l-1-1v2l-1 1v1l-1 1h-6l-1 1h-4v1-1h-1v-1h-1v-1h-1l1-1v1h2v1h2-1l1-1v-2h1v-1h2l1-1h1l1-1v-1h1l1-1v-1l1 1v1h1v-3h1v2h1l-1-1v-1h1v-2h2v-1l1-1 1-2v1l1-1v1l1 1v1h1v1h2l1 1h1l-1 1h-2v1h1v1h-3zm-44-6l1 1 1 1h1v1h1v7l1 1 1 1v1l1 1h-1v-1 1h-2l-1-1h-1v-1h-1l-1-1-1-1h-1v-2h-1v-2h-1v-5h-1v-2l1 1h1l1 1-1 1h1l1-1v1h1v-2zm45 6h-1 1zm-47 4v-1 1zm29 1h-1v-1 1h1z"/><path d="M568 439h-2v-3h-1v-1h1v-4h-1v-2l-1-1v-4h1v-1h1v-1h1v-2l1-1v-1h1v-1h-1v-4h1-1v-5h-1l-1-1h-2v-1h-3v-3h2v-1h3v-1h2l1-1 1 1v1h3v3h-1v2h1v1h1v1h1v-2l1-1v-3h1v-1h-1l-1-1v-1l-1-1h-1v-3h-1v-1h1v-2h4v1h2v-1h1v1h1l1-1h2l1-1h3v-1h1v-1l1 1v1l-1 1v1h1v3h-1 1v5h1v1h-1v2h-1v1h-1v1l-1 1h-1v1h-2v1h-2l-1 1h-1v1h-1v1h-1v1l-1 1v-1 1h-1l-1 1-1 1h-1v3h1v2l1 1v2-1h1v3l-1 2h1v1h-1v2h-2l-2 1-1 1h-2v2h-1 1v1-1zM542 411h1l1-1 1 1h2-1l-1 1h-2v1h-1l-1-1h-2l-1 1h-3v11h-3v20h-1l-1 1h-5v-2h-1v-1l-1 1v1h-1l-1-1h-1v-1l-1-2v-1h-1v-4l-1-1 1-1-1-1v-4l-1-1v-1 1h1v-1l-1-1v-1l-1-1v-1l-1-1-1-2v-1h-1l-1-3-1-1v-1h-1v-3h2l1-1h2v1h14v1h2l1 1h7l1-1h2zM925 416v-1 1zm12 3h1l1 1h1v1h1v1h1l1 1 1 1 1 1h-2v-1h-1l-1-1h-1v-1h-1v-1h-1l-1-1v-1h-1v-1l1 1zm6 1v-1h1-1v1h1-1zm3 1h-1v-1 1h1zm1 1h1v1h-1v-1zm-1 4v-1 1zM518 295v4h1v1l1 1v1l1 1-1 1v6l-1 2v2l-2 1-1 1v1l-1 2-1 1v2h-1v1h-2v1h-2l-1-1h-3v1h-1l-1 1h-3v-1h-1l-1-1-1 1h-2l-1-1v-1h-5l-1 1-1 1v1h-1v3h-1v-1l-1-1h-1v2l-1-1v-2h-2l-1-1v-1h-1v-1h-1v-2h-1v-1h3v-1h5v-1h1l1 1v-1h1v-2l1-1v-8h4l1-1v-1h1l1-1h1v-1l1-1h1l1-1 2-1 1-1 2-1 1-1 2-1 1-1 1-1 2 1h3v1h1l1 1h1z"/><path d="M514 322l1 1v1l1 1v1h1v3h-2v1h-1v2l-1 1v1h-1v2l-1 1h-1v3h-1v1l-1 1v1h-1v-1h-1v-1l-1 1h-1v-1 1h-1v1h-1v1h-1v2l-1 1v1l-1-1v1h-3v1h-1v-1 1h-1v-1 1h-1 1-2v-1h-1v-2l-1-1h1-1v-1h-1l-1-1h-2v-1 1h-3 1v-4h-1v-1h1l-1-1h1v-2h1v-2h1v-1h1v-1h-1v-6h1v-1l1-1 1-1h5v1l1 1h2l1-1 1 1h1v1h3l1-1h1v-1h3l1 1h2v-1h2v-1h1zm-18 27v-1 1zM243 319h-1v3l-1 1 1 2-1 1h1-1v-1 6h-1l-1-1h-4v-1l-2-1v-1h-1l-1-1-1-1v-1l1 1v-1h1l1-1h-1v-1h2v-1l1 1 1-1h1v-2h1v1h1v-1 1-1h3zM491 184h-1 2-1zm1 0h1-1zm2-1h-1v1l1-1zm-4 1v1-1zm-3 9h-2v1h2l1-1h-1zm9-9h-5v1l-1 1h-1v2l-1 1v1h-1v1l1 1h-1l1 1-1-1h-1v1h4l1 1h1v2h1v-1h-1 1v-4h2v-2h1v-1h-1v-1h1v-3zm-10 8h1v-1l-1 1zm3-6l1-1h-1v1zM548 73v1h1v1h-1l-1-1 1-1zm15 12v2h-1l-1-1v1h-1v1l-2 1v1l-1 1v-2l1-1v-2l-1-1-1-1h-1v-1l-1-1-1 1-1 1-1-1-1 1v1h-1v1l-1 2v4h-1v1l-1 1h-1v-1h-1l-1-1v1h-1l-1 1v-1h-2l-1-1v-1l-1-1v-1h-2v2-1h-1v1h-2 1v2l-1 1 1 1-1 1h-1l-1-1h-1l-2-1v4l-1 1-1-1h-1l-1 1-1 2v1h-1v1l1 1v1l-1 1-1 2v1h-1v2l-1 1h-1v6h-1v2l-1 1-1 1 1 1 1 1v1l-1 1h-3l-1 1-1 1v13h1l1 1v2h-2v1l1 1v4h-1v1h-1v5h-1v-1h-2v-4l-1 1h1l-1 1v2l-1 1v-1 1l-1-1v1h-1v1l-1 1-1 1-1 1h-1v1h-3v-1 1l-1-1h1-1l-1-1-1-1-1-1v-1h3-1l-1-1h1v-2h1-1l-1 1h-1v1h-1v-2h1v-1h2v-1h-1l1-1v-1l1-1v1l1-1v-1h1-1l-1 1h-1v1h-1v1l-1 1v1h-1v-1l1-1h-1 1l1-1h-1l-1-1v-1h1l1-1-1 1-1-1v-2h5l1 1v-1l1-1v-1h-1v1h-2v1l-1-1-1 1h-1l-1-1v-1h1v-1h-1v-2h1l1 1h2l1-1h-5v-1l1-1v1-1l1-1h3-2v-1h4v-1h2-4v-1h1l1-1h2v1h1l-1-1v-1h1v-1h-1v-1h1l1-1 1 1h-1v1h1v-1h2v1h2v-2h1l1-1h-1 1v-1h-1v2l-2 1h-2v-2h1v-1l1-1 1-2 1-1h1v-1h1-1v-1l2-2v1h1l1-1v-1 1h-2v-2l1-1v-1h1v-2h2l1-1h-2v-3h1v-1h1-1v-1h1v-1h2v-1h2-3l1-1v-1h2v1h1v-1h-1v-2l-1 1h-1v-1l1-1h2-1v-1l1-1h1v1l1 1v-2l-1-1h1l1-1v1h1l1-1h-3v-1h1v-1h1l1-1v-1l1-1h1v-3l1 1h1l-1-1h1v-1l1-1 1-1v4-1l1-2v-1l1-1v4l-1 1h1v-1h1v-3h1l1-1 1 1h1l-1-1v-1l-1-1h1l1-1v1-1l1 1v-1h1v1l1 1v1h1l-1-1v-1h1v-1l1-1 1-2v-2l1-1 1 1 1 1v-1h1v1l-1 1v2l-1 1v2h1v-2l2-2 1-2v-1h1v2h-1l1 1v1h1v-2l1-1-1-1h1v-1h2l1 1v1h-1l-1 1h1v4-2h1v-2l1-1h1v1h1l1 1v-1l1 1 1 1 1 1v1h-2v1h-4l2 1v2h2v-1 1h2zm-21-9v1h-1v1h-2v1l-1-1v-1h2l1-1h1zm1 2v1l-1-1v-1h1v1zm-1 0v2h-1v1-1h-1v-1h1l1-1zm-11 3h1v1h-1v-1zm-1 1v1l1-1v1l-1 1v1-1l-1 1v1l-1 1h-1v-2h1v-1 1-1l1-1v-1l1-1v1zm4 0h-1v-1h1v1zm26 3h-1v-1h1v1zm-35 1v1l1-1v1h1v1h-1v2h-1v-1 1l-1 1-1-1h1v-2h1v-1h-1 1v-1zm-5 8h1v-2h1v2h-1v2h-1v-1 1h-2l-1 1h-1v-1h1l1-1 1-1v-2h1-1v-1l1-1v-1h1v1l-1 1 1 1v1l-1 1zm-1-3v3h-2v-1 1h-1v-1h1v-1 1l1-1v-1h1zm-4 6h1-1v1h-2v1-2h1v-1h1v1zm-3 2v1-2h1v1h-1zm-1 14h-1l1-1v-1 2zm0 1v-1h1l-1 1zm-2 1v1-1h1-1zm-2 6h-1v-1h1v1zm-7 7h-1 1v-1l1 1h-1zm-1 2h-1 1zm-9 14h-1v-1h1v1zm0 4v1-1zM723 280v5l-1-1v1h-1v-1 1l-1-1h-4v-1h-2l-1-1-1-1h-2v1l-1-1h-2v-1h-2v-1h-1v-1h-2v-1 1l-1-1v-2l1-1v-1h2v-1h2v1h1l1 1h1v1h1v1h1v-1l1 1v1h1l1 1h1v1h2v1-1h1v1h1v-1l1 1zM962 465h1l1 1v-1l1 1v1h1v1h-1 1v2l1 1h-1v1h2v1h1v-1h-1v-2 1h1v1l1 1v2h2l1 1h1v-1h1v-1h1l1 1v1h-1v2h-1v2h-2v1h-1 1v2h-1v2h-1v1l-1 1-1 1-1 1v-1h-1v-1 1h-1v-1h1v-2h1v-1l-1-1v-1h-2v-1h-1v-2h2v-3h1l-1-1h1l-1-1v-2 1h1v-1h-2v-2 1l1-1h-1v-1 1l-1-1v-1 1l1 1h-1v-1l-1-2v-1 1h-1v-2l-1-1v-1h1l-1 1h1z"/><path d="M969 470h-1v-1l1 1zm-7 18v-1h1l1-1v2-1h1-1l1 1v-1 1h-1l1 1h-1 1v1h-1v1l-1 1-1 2-1 1h-1 1v1h-1 1v1h1l-1 1v-1h-2v1h-2v1h-1 1l-1 1v3h-1v2l-1 1v1h-1l-1 1h-4v-1h-2v-1 1h-2v-2l-1 1v-1h2-1v-1h1-1v-1h1v1-2l1-1v1-1l1-1v1-2h1v-1h2v-1l1 1v-1h1v-1h1v-1h1v-1h1-1 1l1-1v1-2h1v-3h1l1-1v-2l1-1h1v1h1v2zm-17 15h-1 1z"/><path d="M944 504v1h-1v-1h1zm4 5v1-1 1h-1v1h-1v-1h1v-1h1zM634 287h-1v-1h1-1l1-1v2zm-9 27v-1h-1v-2h-1v-2l-1-1v-1h1v-1h3v-1h2l1-1h1v-1h1v-3h1v-3h-1v-4h1v-1h1v-1h-1 1-1v-1h1-1v-1h1v1l1-1v1l1 1h1v1l2 1h3v1l1 1v1h2v1l-1 1v2h-1l-1 1v1h-1v1h-1v-1 1h-1v4h-2l-1 1v1l-1 1h-2l-1 1v1l-1 1h-3l-1 1h-1zm16-11h-1 1v-1 1zM259 337h-1 1v2l-1 1v-1 1h-1v1-1l-1-1v-1l1-1v1h1-1v-1h-1v1-1h-1v-1h-3v1l-1 1h-1v1h1v1h-1v1h-1v-1l-1-1v1-1h-1v-1h-4v-2h1-1v-2h1l1 1v1h1v-1 1h4l1-1h1v-1h2v1h3v1h1l1 1zm-5 1v-1h1v1h-1zm-7 2h-1 1zM280 373h-6v1h-1v1h-2v2l-1 1h1v1h-1v1h-1v2h-1 1v2h1v1l1 1v1h-1 2l1 1v1h3l1-1h1v-1 5h3v1h1v2h1v2h-1v3l1 1h-1v1h-1v1l1 1h-1v1l1 2h1-1v1l-1 1-1 1h1v1h-1v2h-2l-1-1h-1v-2h-2v-1h-1v-1h-2l-1-1h-1l-1-1h-1v-1l-2-1h-1v-1h-1v-1l-1-1v-2l-1-1v-1l-1-1v-1h-1v-2h-1v-2l-1-1-1-1v-2h-1v-2l-1-1v-1h-1v-1l-1-1v-1h-1l-2-2h-1v-1h1v-1l-1-1v-2l1-1v-1h1v-1h1v2h-1v1h3v2h1v-1h1v-2h1v-2 1h1v-1h-1 1v-1h2l1-1h1l1-1 1-1 1-1v-2 1h1v-2h-1v-1h2v1h1v2h2v1h1v1h1v2h1v-1 1h1l1-1h3l1 1h1v2h-1v1h-1l1 1h1v1zM907 393v1-1h-1 1zm2 0h-1 1zm-9-4h1-2v-1l1 1zm-2-2h1v1h-1v-1zm0 1l-1-1h1v1zm6-2h1v1l-1-1zm-25-1h-1v-1 1h1zm21 0v1-2 1zm-21 0l-1-1h1v1zm12-8v-1 1zm23 3h-2v-1h-1 1-1v-1h-1v-2h1v1h1v1h1v1h1v1zm-25-4h-1l1-1v1zm21 0v-1 1zm-24-2h-1 1zm16-1h2v1h-1v1h-1l1 1h-2v1h-1v1h-3l-1 1v-1h-2v-1h-2v-1h3v1-1h2v-1 1h3v-1h2v-1l-1-1h1zm2-3v-1 1zm-1-1h-1 1zm-1 0v-1 1h1-1zm-22 3h2l1 1h1l1 1v2h1l1 1h2v1h2v2h-3l1 1v1h1v1h1l1 1v1h1v1h2v2h2-1v1h2v1h1-1 1v1h-2v-1h-3l-1-1h-3v-1h-1v-1h-1v-1h-1v-1h-1v-1l-1-1h-2l-1-1h-1v1h-1v-1h-1l1 1h-1v1h-4 2v1h1v1h-1v1h-5v-7h-1v-1h1v-11l2 1 1 1h4v1h1v1zm25 2l-1-1v-1l-1-1h-1v-1h-1v-1h-2v-1h1v1h2v1h1v1h1l1 1 1 1h-1v1zm-7-6h-1 1zm-9-2l1 1v-1 1h-3v-1h2zM818 302v-1 1zm-2 5v-1 1zm0 1l1 1h2v-1 4h1v1h-1v2h-1l-1 1v4l1 1 1 1v-1h2v1h1v-1 1h2-1v2h1v2-1h-1l-1-1v-1h-1l-1-1v2-1h-1l-1-1h-1l-1 1v-1h-2v-1h1v-2h-1v1h-1v-2l-1-1v-2h1v1h1v-8h2zm2 11v1-2 1zm1 2h-1 1zm6 2h-1v-2h1v2zm-7 0h1l-1 1v-1zm-3 0h1v1h1v2h-1v1-1h-1v-2h-1v-1h1zm7 2l-1-1 1 1zm1 1v-1 1zm-4 0l-1 1v-1l1-1v1zm4 0l1 1v1l-1-1h-1v-1h1zm4 0h1v3l1 1h-2v-1l-1-1h1-1v-1h-1v-1h2zm-7 0h-1 1zm-7 1h1-2v-1h1v1zm0 1h-1v-1h1v1zm7 0h1v1h1-1v1l-1 1h-2v1-3l1-1h-1 2zm6 0v1-1zm0 1h-1v-1l1 1zm0 0h1v4h-1v-3h-1v-1h1zm-21 8v1-2h1v-1h1l1-1 1-1 1-1 1-1v-2 1l1 1v1h-1l-1 1h-1v2h-2v1h-1v1h-1zm18-8v1-1zm-1 5v1-2h1v-2l1-1v-1 3h-1v1l-1 1zm-1 2v-1h-1v-1h-1v-1h2v-3h2v1h-1v4l-1 1zm-1-4v-1 1zm-8 0v-1h1l-1 1zm17 1h-1v-1h1v1zm-3 1h-3v-1h1l1-1v1h1-1 1v1zm1-1h1-1v-1 1zm3 1l-1-1h1v1zm0 1v2h1v4l-1 1v1-1h-1v-2 1h-1v2l1 1-1 1h-1v-1 1l-1-1h-2v-5h-2v1h-1v-1 1-1h-1v1h-1v2h-1v-2h1v-2h2v-1h3v1h-1 2v-1h1v-1h2v-2h1v1h1zm-7 0h-1 1zm-19 4v-1 1zm25 2v1-1zm-10 2h-1v-1h1v1zm-3 1h1l-1 1v-1h-1 1zm-3 2v1h-1l1-1zM686 250h1l1 1v-1 1h1v2l1 1h2v1h2l-1 1h-1v1h-2v1h-5v-1h-1v1h-1v1h1-1v1h1v4h1-1 1v1h2v1l-1 1h-1v3l-1 1-1 1v1h-1v1h-1v2h-1v1h-1v1h-1v2h-4v-1h-1v1h-1v2h-1v2h2v3h1v1h1v3h-6v1h-2v1-1h-1v1-1h-1v-1l-1-1-1-1v-2h-2 1v1-1l-1 1h-12v-3h2v-1h2v-2h1-2v-3h-1v-1h-1l-1-1v-1l-1-1-1-1h2l1 1h9v-1h3v-4h1v-1h3v-1h1v-1h2v1l1-1v-2h1v-2h2v-2l-1-1h3v-2l1-1 1-1v-2h-1v-2h1v-1h2v-1zM531 179h10v1h1v3l1 1v3l-1 1h-1v1l1 1v4h1v1h1v1h-1l1 1h-1l-1 1-1 1v1h-1v1h-1l1 1v1h-2v-1h-6v1h-1v-2h-1v1h-1v-1l-1-1h-1v-1h-2l1-1h-2v-1h-1v1h1-1v1h-1v-1h-1v-1h1v-1h-1v1-1h-2v-1h-2 1v-2l-1-1v-5h-1v-5l1 1v-1h-1v-1h1l2-1h2v-1h1v-1h2l2-1h2l1 1h-1v-1 2zM318 213v-2 2zM290 309h2-1v1h-4v-2h3v1zm2 1v-1h1l-1 1zM572 269v-1h1l-1 1zm4-2v1h-1v1h-1v-1l1-1h-1v-2h2v2zM453 232h5l-1 1h1v1h-1v1h-1l1 1v2h-1v1h1l-1 1h-1v1l1 1v1l-1 1v1h1v1h-1v3l-1 1-1-1h-2v1-5h1l-1-1-1 1v-1l1-1v-1l-1 1v1h-1v-2h1v-1l1-1v-3l1-1v-1l-1-1v-2l1-1h1zM313 418v3h1l-1 1v2h3v1h1v-1h1v1h1l1 1v4h2v-1h1v1h1-1v1h1l-1 1v4l-1 1v2h-2v1h-2v1h-3l-1-1h-3l1-1v-1h1v-2l1-1v-2h-2v-1h-2l-1-1-1-1h-2l-1-1h-1v-1h-1l-1-1v-1h-1v-1h-1v-1l1-1v-3l1-1v-2h1l1-1h7l1 1h1zM620 290h-2l1-1-1-1v-1h1v-1l1-1v1h1v1h-1v1h1v1zM555 218v1h2l1-1h1v3h-2 1l-1-1h1-1v2h-1v3h-1l-1-1h-1l-1-1h-1l-1 1h-1l-1 1h-5l-1-1h-1l-1 1v-1h1l-1-1h-1v-1h1l-1-1-1 1v-1h-2v-2h-1l-1-1v-2h-1v-1h2v-1h1v-2h1v-1l1-1v-1h2v-1h1v-1l1 1h3l1 1h1v-1h2l1-1h2v2h1v2h1v1h1z"/><path d="M531 215h2v1h1v2l1 1h1v2h2v1l1-1 1 1h-1v1h1-1v3h1v2h-1v2h-2v1h-1v-1h1v-1h-1v-1h-1v-1h-1v1h-2v-1h-1l-1-1v-1 1l1-1-1-1h1l-1-1v-3h-1v-1h1-1v-3h2zM621 65l-1 1v3h1v1h5v2-1 1l1 1h1v1l-1-1v1h-1v2h2v1h4v1h1v-1 1-1l1 1h1l-1-1h1l1 1h1v-1h1l-1-1h-1v-1l-2-1-1-3v-1l-1-2v-1l-1-1v-1l1-1-1-1v-3h1v-1l1-1h1v-4h-2l-1-1h-3v1l-1-1-1 1-1 1v2h1-2l-1 1v1h1v4h-1v1h-2v1zm22 20h3v-2h-1l-1-1-1-1v-1h-1v-1h-1v1h-1v2h1v2h2v1zm16-66h-1l-1 1-3 1-1 1h-2l-2-1h-1v1h-1v2h-1v-1l-1 1-1 1-2 1h-1v1l-1 1-1 1-1 1v2h-3v1h1l-1 2h-1v-1h-1v2h1v1l-1 1-1 2v1h1l-2 1-1 3v1l-1 1-1 1h-1v1l1 2v2l1-1h1l1 1h5v-2l1-1v-2l1 1v-3l2-1v-1l1-1h-1v-2l1 1 1-1v-2l1 1h1v-1h1v-1l1-1-1-1 1-1h1v-1l1-1v-1 1l1-1 1-1 3-1 1-1h1v-1h1l2-1h1l1-1 2-1 1-1h1v-1h1l1-1 1-1 1-2 1-1v-4h-1l-1-1h-2l-2 1-1 1-1 1v1l-1 1-1 1zM540 178v-1l-1-1h-2v-1h-2v2l-1-1v-1h1-1v1h-2v2h-1v1h9v-1z"/><path d="M625 73v-1l-1-1h-1v1l1 1v1h1v1-2zm122-51v-1h-1v1l-1-1-1 1v-1l-1 1h1l1 1h1v-1h1zm1-1l-1 1 1 1v-2zm1-4v1h1l-1-2v1zm29-8V8h-1v2l1-1zm-59 29h1v-2h-1l-1 1v1h1zm163 166l-1-1v-2h-1v-3l-1-1v-4l-1-1v-8l-1-1v-4h-1v1h-1 1v4h-1v-1l-1 1v5h-1v2h1v1l1 1v9l-1 1v3l1 1v2h-1v2h1l-1 1v4h1v-2h1v-1h1v1h1v2h1v-3h-1l-1-1v-2h-1v-3l1-3v-1h1v-1h2v1h1v1h1v1-1zM714 42v-1h-1v1h1zm-4 4h1l-1-1h-2l1 1h1zm217 30v-1h-1v1h1zm1 13v1l1 1v1-6 1h-1v2zm19-4h1v1h3v-2l-3-1-1 1v1zM791 18v1h1v-2h-2v1h1zm34 30h1v-1h-1v1zm-12 8v-1h-1v1h1zM707 46h1v-1h-1v1zm156 23h-2v2-1h1v1l1-1v-1zm47 133l1-1h-1v1zm-5 7h1-1zm9-13h-1v1l-1 1h-1 1v1l1-1 1-1v-1zm1-1l-1 1h1v-1zm-3 1h1v-1h-1v1zm-9 15v1h-1v1-1l1-1zm5-7v1-1h1-1zm-21 21h-1 1zm-1-3l-1 1v1h-1v1-1h1v-1h1l1-1h-1zm8-4h-1l-1 1h-1v-1 1l-1 1-1 1-1 1h1v-1h1v-1h1l1-1h2v-1zm4-3l-1 1h-1v1l-1 1h1v-1h1v-1h1v-1zm-10 9l-1 1h1v-1zm11-69h-1v1h1v-1zm39-1l-1 1-2 1h1l-1 1v1l1-1 1-1h1v-2zM690 51h-1l1 1h1l-1-1zm-5 6v1l1-1h-1l1-1v-1h-2v2h1zm12 2h2v-3l-1-1-1 2v2zm-4 1v1l-1 1v1h2l1-1 1-1-2-1h-1zm167 116v1h1v-1h-1zm3 0l-1-1v1h-1v1h1v1h1v-2h1-1z"/><path d="M1010 112h-2 1v-1h-2 1v-1l-1-1h-1l-1-1v-1l-1-1h-2l-1-1v1h1-2v1-2h-4v1h2v2h-1v1h1l1 1h-1v1-1h-1v1-2h-2v-1l1-1v-1h-1v-2l1-1h-2v-2l-4-3-1-1h-1v-1l-2-2v1l1 1v1-1l-1-1h-1v-2h-1l-1-1h-1v-1h-1l-2-2h-1v-1l-1-1h-2l-1-1h-2l-1-1-1-1h-7v-1l-1 1h-1l-1-1h-1l-3-1h-2v3l-1 1h2v3l1 1v1l-1 1h-2l-1 1-1-1v-2h-1l-1-1h-1v-3l-1-1h-1l-1 1-1 1h-2l-1-1h-3l-1-1h-4l-1 1h-1l-1 1-1 1v4l-1 2h-1 1l1-2v-1h-1v-4l-1-1-2-1h-1v-3h1v-3l-1-1v-1l-1-1-2-1-2-1h-8l-2 1-1 1h-4l-2-1v-1h1l-1-1-1-1-1-1h-1l-1 1-1 1 1-1v-1h1v-1h-2v-1h-2v-1h-1v-1h3v-1l-1-1-1-1-1-1h-5l-1 1-1 2-1 1-1 1h-2v-2l1 1 1-1v-2h1v2l1-1 1-2h-5l-2 1v-1h1v-1h4v-1h-2l-1-1h-2l-2-1h-4l-2-1h-1l-1-1v1l1 1v1l-1 1h-4l-1 2v1h3-1v2h-1 1v2l1 2h-1l-1 1-1-1-1-1v1l-1-1v1h-1v1l1 1h-1v1h-1v-1l-1-1-2-2h-3v1h-2v1h-3l-1-1v-1l-1-1v-1h-1v-1 1l-1 1v2l-1 1v3l-1 1v1h-1v1l-1-1v-1h-1l-1-1-1-1-1-2v-1l-1-1h-1l1-1h1v-2h-1v2l-2-3-1-2-1-1h1l1 1 2 2h1v-3l-1-1h-2 1v-1l1-1h1v-1h-1l-1-1h1v-3h-2v-1h-1v-1h-1l-2-1v1l-1 1h-1v-2h-1v1h-1v-1l-2-2h-2v1h-2v3l1 1v1h-1v2h-1l-1-1v1h-5l-1-1-2 1-1-1-1-1-2-1v-2h2v-1h-2l-3-1h-2l-3-1-2 1-2 1h-2l1 1v1h1-1v3l-1 1v2h1v1h-1v-1h-1v-1l1-1v-4l-1-1 1-1v-3l-1-1v2h-3l-1-1h-1v-1l1-1h-1v1h-1l-2-1-1 1v2h3v1h-1l-2 2h-2v1h-2v1h-1l-1 1h-4v2l-1 1h-2 1v-1l2-4h2l1-2v-1h3l2-4h1l1-1v-2h1l1-1 1-1 1-1 2-1 1-1 2-2 2-3v-3h-1v-1h-1v1l-1-2-1-1h1v-1 1l1 1h1v2h1v-4l-1-3v-1h-1v2h-1v-4h-2v-2l-1-1-1-1h-9v2l-1 1h-3l-1-1h1l1-2 1-1v-2l-1-1-1 1-1-1-1 1-1-2-1 1-3-1h2l2-1 1-2h1l-1-1V6h-2l-1-1V4l-2-1-1 2-1-1-1 1-1 1-3 4-1 1v1l-1 1v2l1 1-1 1v1h1l1 1v1l-1-1h-7l1 1 1 1v1l1 1v3l-1 1v-1l1-1v-1h-1v-1h-1v-1h-1l-1 1h-1v1h-1v1l-1-1v1l-1 1h-1v-1l-2 1h-1l1-1 1-1-1-1h-4v1l-1-1-1 1h-2l-1 1 1 1v-1l1 1v-1h1v1l1-1v1h-2l-2 1-1 1h-1l-1 1h-4l-2 2-2 1-1 1-2 2-1-1h-1v1h1v2l-1 1v1h-1l-1-1v1h-1v1h1l1 1 1 1 1 1h-1l-1-1h-1l-1 1 1 1h1l2 4h1l-1 1-1 1-2 1-1 1v1h1l1 2-1-1-1-1v-1l1-1v-1l1-1 1-1h-4v1h-3l-2 1h-6l-3 1v5h1v2l-1 1v1l1 1v1h2v1h2v2l1 1v1h2v5l-1 2 1 1v1l1 1v2l-1 1-1 1v1h-1v-1l1-1v-5h-1l-1 2v3-1l-1-1 1-1v-5l2-1v-3h-4l-2-2v-1h-1v-1h-2l-1-2h-4v1l-1 1h-1v1h2v1l-1 1-2-1v-1l-2 1h-1v1l1 1v2l2 1 1 1h2l1 2v1h1l1-1v1h-3l-1-2h-4l-2-1h-1v-1l1-1v-1l-1-2v-1l1-2v-5l-1-1h-1v2l1 1v3h-1v1l-1 1h-2v1l-2 4 1 1v1l1 1 1 3 1 1-1 1-1 2-1 3v1l1 1v4h4l1-1h1l2 1 2 1v1h1v2l1 1v2h-1v1l-1 1 1 1 1 1h2v1h-3v-1h-1l-1-1 1-1v-4l-1-1-1-1v-1l-1-1h-1l-1 1h-1l-2 1v4l1 1v2l-1 1-1 2v1l-1 1v1l-1 1-3 2v2h-2l-1-1-3 1-1-1-1-1h-1v-2h2l1 1h1l-1 1h2l1-1h1l-1-1v-1h2l2-4 1-1v-4l1-1v-2l-1-1-1-1v-1l-1-1 1-2v-3l-1-4 1-1v-7l-2-1v-3l1-1v-1l1-1v-7l-1-1h-1l-1-1h-6 1l-1-1v1l-1 2-1 3-1 4v2l-1 2-2 1-1 1-1 1v1h1l-1 1v1h2v3l-1 1v1l1 1-1 1-1 1v2l1 1v-2l2 1v1h1v2l1 1v1h1v1-1h1v1l-1 2-1 2-1-1h-1v-1l-2-1v-1h-1l-1-1h-1v-1h-1l-1-1h-1v-1l-1-1h-1l-2-1-2-1h-3l-2-1-1 1-1 1v1l1 3h1v2l-1 1h-2v3h-2v-3h1l-1-1v-1h-1l-1 1h-1l-2 2h-6v1l-1 1v1h-1v-1l-1 1h-3v-1h2v-5h2-2l-1 1-2 1-1 1 1 1-1 1h-1v-1h1-1v-1l-1 1-1 1h-2l-1 1-1 1-2 2h-1v-1 2h-2l-1 1v4h-1l-2 1h-2l-1-1v-1l-1-1-1-1v-1l1-1 1-1h3v-1l-1-1-1-2v-1l-1-1h-4l-2-1v1l2 2v3l-1 2v4h1l1 1v2l-1 2v3h-1v-1h-1v-1l-1-1h-2v-1h-1v1l-1 1-1 1-1 1h-1v1l-1 1-1 1-1 1h1v1l1 1v2h-1v1h-2l-2-1h-1v-1l-2-1-1-1-1 1v1h-1v1h1v1l1 1v1h2v1l1 1-1 1h-3l-1-1-1-1-1-1h-1l-1-1v-3l-1-1v-1l-1-1h1v-2l1-1-1-1-1-1v-1h-2v-1l-1-1v-1h-1v-1l-1-1v-1h-2 3v1l1 1 1 1v-1l1 1h2v1h-1 2l1 1h1l2 1h3l1 1h4l2-1 2-1 1-3 1-1v-2h-1v-3l-1-1h-1v-1l-1-1v-1h-1l1 1h-1l-2-2h-1v-1l-2-2-3-2-2-2h-5v-1h-2v2h-1l1-1v-2l-1 1h-1l1-1h-2l-1-1h3v-1h-1l-1-1-1-1v1h-1v1h-2v2h-1l-1-1v1h-1v1l-2 1v2h-2v1h1v1l-1 1v3l1 1h1l1 1 1 1v2l-1 1v1h-1v2h-1v1h1v2h1v2l1 1v3h-1l1 1-1 1v1h1v1h-1v2h1v3h1v1h1v1l-1 1-1 1 1 1 1 1 1 1 1 1v3l-1 1v1l-1 1h-1v1l-1 1-1 1v1l-1 1h-1v1h-1v1l-1 1-1 1h1l1-1v2h1v1h3v1h1v1h-1l-1-1h-1l-1 1h-1v1h-1v-1 3h-1v1l-1 1v5h1v1h-1v2h1v2l-1 1h1v1h1v3h2v1-1h1v2h1v-1h2l1 1h1v1l-1 1h1v2h-1l1 1v1h1v1l1 1v1h2v1l1 1h-1v1h-3v2l1 1v2h1l1-1h4v1h1v4h2l1 1v2h1v1-1h1v1h3l1-1v1l1 1 1 1v-1h1l1 1h2v1h1v1h1-1v1h-1v1h1-1v1h1v3h-3v1h-1l-1 1v2l1-1h1-1 2v1h-2v1h-2v1h1v1l1 1h-2v1l-1 1h1l-2 1v-1h-1v1h1-1l1 1h1v1h1l1 1 1 1h1l1 1 1 1 1 1h4v1h5v1h1l1 1h4v1h1v1h1v1h2l1 1v1h1l1 1v-1h1v-1h1v-1l-1-1v-1l-1-1v-1h-1v-3h1v-1l-1 1v1-3h-1v-1h-1v-1h1v-1 1-1l1-1v-2l1 1v-1h1l1-1h1l1-1-1-1h-1v-1h1v-2h-1v-1l-1-1h-3v-2l-1-1v-2l1-1v-1h-1v-1l1-1v-1h1v-2l1 1 1 1v1h2v-2l-1-1h1v-1h1v-1h1v-1h2v-1h1v-1h2v1h1v-1h2v1h3l1 1h1v1l1 1v1-2h1l1 1 1 1 1-1 1-1h4v-1l1 1v-1l1 1h1v1h1l1 1h1v-1h4v-1l1-1v-1h-2v-1h-2v-1h-1v-1h2l1-1v-1l-1-1h1v-1h3v-1h-2v-2h1-2v-2h6v-1h3v-1h3v-1h4v-1h3v-1h1v-1h2v-1h2l1 1h3v1l1 2v1l-1 1h3v-1l1 1v1h1v-1l1 1h2l-1 1v2l1-1h2v-1h2v-1h1v-1h2l1-1h1-1v1h-1v1h1v1l1 1h1l1 1 1 1v1l1 1 1 2 1 1v1l1 2 1 1v2h1v-1h1v-1h2v1h-1 1v1h4v-1h3v1h1v2h1l1 1v1h1v1h4v-1 1h1v2h3v-1h1v-1 1-1h1v1-1h1v1-1h1v-1h1-1l1-1h1l1-1h1v-1h2v-1h2v-1 1h2v1h4v2h2v1-1h1v1-1h2v1h4v-1h1v-1h1v-1h-1v-2h-1l1-1v-1h1v-1l1-1v-1h1l1 1h1l1 1h3v1h3v4h1v1h2v1h1v-1l1 1v-1h3v-1h2v1h3v1h3v2h1v1h3l1 1h3l1-1h2l1-1h2v-1h1v-1h1l1-1h2l1 1 1 1h1v-1h1l1 1h1v1h4v-1l1-1h2v-1h-1v-1h1v-2h1v-1l1-1v-1l1-1 1-1v-1h-1l1-1h-1v-1l-1 1v-2h1l1-1v-1h4v-1 1h1l1-1h2l1 1h1v1h3v1-1l1 1v1h1v2h1v3h1v3l1 1v2h1v3h3v1h3v1l1 1h1v1l1 1v3h5v-1h1v-1h3l1-1h1v4h-1l-1 1h1l-1 1v3h-1v2h-1v1l-1 1v1h-1v-1h-3v1h-1l-1 1h1v7h-2v2h1v-1h1l1-1 1-1h1v1h1l1 1v-1 1h1l1-1h1l2-1 1-1v-1h1v-1l1-2h1v-1h1v-1h1v-1l1-1 1-1 1-1v-1l1-1v-1l1-1 1-2v-1l1-1 1-1 1-1v-1l1-1v-5h1-1v-3l1-1v-3h1v-1h1v-2h-1v-3h-1v-1l1 1 1-1v-1h-1v-1h-1l-1-1-1-1-1-1h-2l-1-1v4h-1l1-1v-1h-1v1l-1 1h-2l1-1 1-1h-2l1-1h-1v2h-1l-1-1h1v-3h-5v-2h1l1-1 1-1h1v-1h1v-1h1v-1h1l1-2h1v-1l1-2h1v-1l1-1h1v-1h1l1-1 1-2v-1h1l1-1 1-1v-1l1-1 1-1h3l1-1 1 1 3-1 1 1v1h1v-1l1-1 1 1h2l1-1h1l1 1h1v-1l-1 1v-1h2-1v-1h1v-1h1l1 1h1l1 1h-1 1l1-1 1 1 1 1h1l-1 1h-2l1 1h2v-1h1v1h1v-1h1v-1h1l1 1h1v-1l1 1h1v-2h-2v-2l1-1 1-2 1-1 1-1 1-2 1-1 1-1v-1l1-1h4l1-1h1v1h1l1-1h1v2h-1v3h-1v1h1v-1h1v1l-1 1h2v-1h1l3-4h1v-1 1l1-1v1h1v-1h-1v-1l1-1v-3l3-1h1v1h1l1 1h-3v1l-1 1v5l-1 1v1l-1 1h-1l-2 1v1l-1 1-1 1-1 1-1 1-1 1-2 2v2h-1v1l-1 1h-1v1l-1 1h-2v1h-2v3l-1 1-1 1v1l-1 3v1l-1 2v1l1 2v4l1 1v5l1 1v5l1 1v1l1-1 1-1v-1h1l1-1v-1l1-1v-3h1v-1h3v-2l-1-1 1-1v-1h1v-1l1-1h1l1 1 1-1 1-1v-1h-1v-4l1-1v-1h1v-1h1v1h-1l1 1h1v-3h-1v-4l1-1v-1l-1-1h-1v1h-1v-1h-1l1-1v-1l1-2 1-1v-1h1v-4h1v-1h2l-1 1 1-1h1v1h1v-2h2l1-1v-1h1v1l-1 1v2h1v-1l1-2h1l1-1h5l1 1v1h1v1h1v-1l1-1v-1h1l1-1 1-1h1v-1h1v-1h1v-1h1l1-1v-1h3v-1l2-1 1-1 2-1 1-1h1v-1h1l-1 1h2l3 1v1h1v-2h1v-2h-1v-2h-1v-2 1h-1v-6h-1v1h-1v-1l-1-1v-2l-1 1h-3 1v-1l-1-1v1h-3l-1 1 1-1h2l1-1 1 1h2v-1h-1l-1-1h1l1 1h1v1l1 1h2l2-1h1v-1l1-1 1-1v-1h1v-2h-1v-3h1v-2h1v2-1h1v-1 3h-1v1h1v2h6l1 1 1 1v2l1 1h2v1h1l1 1v1h1v-1h1v1h1v-1 1h1v-2h-1v-1h-1 1v-1h2v-2h-1 1v-1h-1v-1h1-1l-1-1h1l1 1h3v-1h-1v-1l1 1h2v-2h2z"/><path d="M790 41v2h-1v1h1l1 1h1l1-1h1v-2l-1-1h-3zM662 76v2l1 1v-1l-1-1v-1zm11 32h-2v1h2v-1zm-8-21v-1l-1 1h1zM562 364h-1 1v2l1 1h-1v1h-1v-1 1h-1v-1 1l-1 1h-1v-1h-1v1-2h1v-2h3v-1zM606 276h3v2h3v1l1 1v1h1v1h1v1h1l1 1h-1 1v1h-1v1h1v2h1v2h2v1h1v2h1v1h1v1h2l1 1h5v1h1v3h-1v3h-1v1h-1l-1 1h-2v1h-3v1h-5l-1 1h-4l-1 1h-1v1h-1v1l-1 1v1h-2v-1h-9v-1h-1v3l-1 1v-2h-1v-1l-1-1-1-1-1-1v-1l-1-1v-2h-1v-1l-2-1h-1v-1l-1-1v-2h-1v-2h1v-1h-1v-2l-1-1-1-1h-1v-1h-1v-1l-1-1v-2h-1v-1l-1-1v-1l-1-1v-1h-1v-1l-1-1v-1h-2l1-1v-3h1l1 1h1l1-1 1-1 1-1h1l1-1v-2h-1v-1h-1v-1h2l1-1h2l1-1h1l1 1h1l1 1h2l1 1 1 1h1v1l1 1h1l1 1 1 1h1v1l1 1h5zm-27 11h-1v-1h1v1zm0 1v-1h-1 1l1 1h-1zm15 26v-1 1h-1v-1h1v1zM918 381v1h-1v-1h-1v-1h-1v-1l1 1h1v1h1zm-5 0v-1 1zm12 4h-1v-1h-2v-1h-1v-1l1 1h1l1 1 1 1zm-9-2h-1v-1h1v1zm1 1l-1-1h1v1zm-2 0v-1 1zm4 0v1h-1v-1h-1l1-1v1h1zm8 0l1 1v2h1v1l-1-1h-1v-3zm-3 1v-1 1zm-6 0h-1l1-1v1h-1 1zm2 0h-1 1zm0 1v-1 1zm-2-1v1-1zm5 1h-1 1zm2 0h1v1-1h-1zm-1 1h2v1h1v1h-1v-1h-2v-1zm5 1v-1 1zm1 2h1v1h1-3v-1h1zm12 1h-1 1zm-15 3h-2v-1l1 1h1zm17 0v-1 1zM564 298h15v1h1v6l1 2v1h1l1 1 1 1v1h-2v1h-1v1h-1v1h-1v4h-1v6h-1v1h-1v1h-1v1l-1 1v3h-1v-1 1h-1v3h-1v-2l-1-1h-1v-4h-3l1 1v2l-1 1h-1v1l-1 1-1 1h-1l-1-1-1-1-1 1v1h-2v1h-3v-1h-4l-1-1v-1h-3v1l-1 1v2h-1v1h-1l-1-1v-4h-1l-1-1v-2h-1v-4h-2v-1h1v-2l1-1v-1l1-1v-2h2v-1l1 1v-13h3v-6h18v-1zM544 114h-3v1l-1-1h-1l-1 1v1h-1v1h-1l1 1h-1v2h-1v1h1v3l-1 1-1 2-1 1-1 1h-1v1-1 1l-1-1v1l-1 1h-1v1h-1l1 1h-1v1-1h-1v2h1-1v1h-1v-1 5h-1v6h1v1h1l1 1h1v1l1 1v2h-1v1h-1l-1 1v-2h-1l1 1h-1v-1 1l-1-1v1l-1-1v1l-1-1v1h-1 2l1 1h4v-1 1l-1 1-1 1h-1v1h-1l-1 1-1-1-1 1h2v3h-1v2l1 1-1 1v3h-1v2l-1 1v-1h-1v1l-1-1h-1v1h-1v3h-1l-2 1-1-1v-2l-1-1v-1h1v-1h-1 1v-1l-1-1-1-2v-1h-1v-3h-1v-2h-1l1-1-1-1v-2h1v1h1v-5h1v-1h1v-4l-1-1v-1h2v-2l-1-1h-1v-13l1-1v-1h4l1-1v-1l-1-1-1-1 1-1v-1l1-1v-1h1v-6h1l1-1v-2h1v-1l1-2 1-1v-1l-1-1v-1h1v-1l1-2 1-1h1l1 1 1-1v-4l2 1h1l1 1h1l1-1-1-1 1-1v-2h-1 3v1l1 1 1 1 1 1h1l1 1 1 1v1h1v5h1v1h-1v1l1 1v3l-1 1v1l1 1v1l1 1zm-16 41l-1 1v-1h1zm2 6v1h-1v-1h1zm-1 1v2l-1 1-1 1v1-4l1-1h1v-1 1zm-7 8v-2l1-1v-2h1v-1 1l-1 1v1l-1 3zM768 357h-1 1zM436 383h-1 1zM522 214h-1 1-1v1h-1v2h-1v1h-2v-1 1h-3 1v-1h-1v-2h-1 1v-1h4v-1h3v-1h1zM539 203v2h-1v1h-2v-1l-1 1-1-1-1 1v1h-3l-1 1-1 1h-3v-1h-1v-1l-1-1v-1h1v-1h2v-1h1v-1h1v-1h1v1h1v-1h1v2h1v-1h6v1zM447 337v1h-1v1l-1 1-1 1v1h-1v-1h-1l-1-1v-1h-1v-1h-1v-1h1-1v-2h1v-1h1v-1h4v1l1 1v3l1-1zm-6 3h-1 1zM441 319l1 1v3h1v1h1v2h-5v-1h-6v1h-4v-1l1 1v-1h-1v1-2h2l1-1h3v1h2v-1h-2l-1-1h-1l-1 1h-3v-2l-1-1-1-1v1-1h1l1-1v-2h1v-2h6v1h2v1h1v1h1v1zM592 366v-2h-1v-11l1-1 1-1v-1h1v-1h2l1-1h1v-1h5v-1l1-1 1-1 1-1 1-1 1-1 1-1 1-1h1-3v-1h-2l-1-1h-3l-1-1h-2v-1h-1v-1h-1v-1h-1v-3h1v-1h1v1l1 1h1v1h2l1-1h4l1-1h3l1-1h5l1-1v-1l2 1-1 1v3h1v-1 1h-1v3h-1l-1 1v2l-1 1v1h-1v1h-1v3l-2 2-1 1v1l-2 2-2 2-2 2-3 2-2 1-1 1v1h-1l-2 2v1h-1l-1 1v1h-1v1zM324 346h-1v4h1v3l-1 1h-5v1h1v1h-2v-1h-1v-2h-1v-1h-1v-1l-1-1v-2h1-1v-1h2v-2h1v-1h2l1 1v-1h4l1 1z"/><path d="M571 333v1h1v3h-3v2h1l1 1v1h1l1 1v1h1v2h1v1h-1v1h-1l-1 1v1h-1v1h-4v1h-2v-1 1h-1v-1h-1v1h-1v-1h-1l-1-1-1-1h-1v1h-1v-1h-1v1h-1v-1h-1v-1h-1v-1h-1v-1l-1-1h-1v-2h-1v-1h-1l-1-1v-1h-1v-1h-2v-2h1v-2l1-1v-1h3v1l1 1h4v1h3v-1h2v-1l1-1 1 1 1 1h1l1-1 1-1v-1h1l1-1v-2l-1-1h3v4h1l1 1zM225 320h1v1h1v1h3v1h-1v1h-2 1-2l-1-1h-1l-1-1 1-1h1l-1-1zM595 249l-1 1v1h-2v6l-1 1v1h-2l-1 1-1 1h-1v1h-1l-1 1h-1l-1 1h-1v1h-1l-1 1-1-1h-1v-1h-1 1v-2h-1 1v-2l1 1v-1l1-1-1-1h-1v-3h-1v-1l1-1v1-1h1v-1h1-1v-1h1v-1h1v1h2v-1h2v1h3l1-1h1l1-1zM566 436v4h-3v-1h-1v-2h1v-1l1-1 1 1zM274 298v1-1zm1 1h-1v-1l1 1zm-2-1v1-1zM543 305v12l-1-1v1h-2v2l-1 1v1l-1 1v2h-1v1h2v4h1v1h-2v1h-1v1h-1v1l-1 1-1 1h-2v1h-3v1h1-1v1h-2l-1 1h-2l-1 1-1-1-1 1h-2l1-1h-1v-1l-1-1v-1h-1l-1-1-1-1 1-1h4-1v-1l-1-1v-5l-1-1v-1h-2v-1l-1-1v-2l1-1 1-2v-1l1-1 2-1v-2l1-2v-6l1-1-1-1v-1l-1-1v-1h-1v-4l1-1h3l1 1 1 1h2l1 1 1 1h2l1 1 1 1 2 1h1l1 1 2 1h1l2 1 1 1zM478 330v2h1v1h1v10h1-1v1h-1v-1h-1v-1h-1v-1h1v-1h-1l1-1v-2h-1v-3 1-3h-1v-2zM757 303h1v2h2v3l-1 1h1v1h-1v1h2v-1h1v-1h1v1h2v-1h3v1h1v1h1v4h1l1 1v4h-1v1l-1-1h-4v1h-1l-1 1v1h-1v1l1 1v2l1 1h-1v-1h-1v-1h-1v-1h-3v-2h-2v1l-1 1 1 1v1h-1v1l-1 1v2l-1 1v2l1 1h-1 2v2h1v1l1 2v1-1h-1v-1 1l1 1h1v1h2l1 1v2h-1v-1l-1 1h-1l1-1v-1h-2l-1-1v1l-1-1v-1h-1v-1h-1v-1l-1-1h-1v-4l1-1v-2l1-1 1-1v-4h-1v-4h-1v-1h-1v-1l-1-1h1l1-1h-1l1-1v-2h-1v-2h-1v-1h-1v-2h-1v-1h1v-2l1-1h3v-1h1v-1h2zm0 31l-1-1h1v1zm0 0l-1 1v-1h1zm-5 2v-1 1zm0 3v-1 1zm1 0l-1-1h1v1zm3 4l-1-1h1v1zM675 238h-1v1h-1v-1h-1l-1 1h-1v2h1v-1l1 1h1v-1 1-1h1v1h2v-1h1v2l1-1v1h1v-1h4l-1 1h1v2h3v4h1l-1 1v-1h-2v1h-1v-1h-2l-1 1v1h-2l-1 1v-1h-1v-1l1-1v-2h-1v-1h-2v1h-1v2h-2v1h-2v-1 1h-1v1h-1l-1-1v-1l1-1v-1h1v-1h-1v-2h-1v-1h-1v-1l1-1 1 1h1v-1h1v-1 1-2h-1 2v-2h1v1h1v-1h1v-1h1v2h-1v1h2zm-1-3v1-1zm0 5v-1 1zM829 384h-1 1zm-2 4v-2h-1 1v-1h4l1-1h1v1h-2v1h-2v1h-2v1zm-3-1h1-1zM663 248h-3v1h-2v1l-1 1v1l-1 1h-2v1h-1v1h-1v1h-2v-1h-2v-4h-3v-1h-1l-1-1v-1h-1l-1-1h-3v-1h-1v-1h-3v1h-4v2h-3v-6h-1v-1h-1v1-2 1h1v-2h-2l1 1-1-1v-4h1v1h2v1l1-1h1v-1l-1-1v-1l-1-1v-1h-2v1h-1v3-2l-1-1h1v-1h2l1-1h1l1 1 1 1 1 1v1h5v-3h2v-1h2-1v-1h2l1 1h2v2h1-1v1h1-1v1h3l1 1v-1h1v1h1v2h1v2h1v1h1l1 1 1 1 1 1h1v1h2v1h2l1 1h1v2zm-38-5v-1 1zM508 263v2l-1 1h-1v1h-1v1h-1v1l1 1v1h-1v1h-2v-4l-1-1v-1h-1v-1h-1v-2h-1v-1l-1-1v-1l1-1v-1h1v-7l1-1h1v-1h1l1-1v1h2l-1 1h1v1-1h1l1-1v2h-1v1h-1v1l1 1h1v2l-1 1v1h-1v1h-1v1l1 1h1v1l1-1v1h1-1v1h1zm0-6l-1 1v-1h1zm-1 4h-1v-1h1v1z"/><path d="M555 232h-1l1 1v1h2v1h-4v1h-1v1h-1l-1 1v1h-1v-1h1v-1h1-2v-1h1v-2h1v-1h-1v-1h1l1-1h1v1h2zm37 1h1v1l1-1h1v1-1h1v1h1v1h1v1h1v1h-1v1h1-1l1 1h2v1h1-1l-1 1h-1 1v4h1-1v2h1v1l1 1h-1l-1 1v-1h-3v-1l-1 1v-1 1h-6l-1 1h-1l-1 1h-3v-1h-2v1h-2l-1-1v1h-1v1h1-1v1h-1v1-1l-1-1h1v-2h-1v1h-2v-1h-1l-1 1-1 1-1 1h-3v-1h-1v-1h-1l-1-1h-2v2h-2v1h-1l-1-1v-1h-2v-1h-1v1h-2v-1h2-3v-1h1v-1h-1v-2h-1v-1 1h-1v-2h1v1h1l-1-1v-1h1-1v-2h-2v-2h1v-1l1-1h2v1h1v-1 1l1-1 1 1h1v-1l2-1h1-2v-1h-1 1v-1l2 1h4v-1l2-1h1v-1h2l1-1 2 1h1l1-1h1v1h-1 1v1h2v1h3v1h2l2 1 1-1h5l1-1h1v-1zm-43 5l-1 1v-1h1zM305 330v-1h1l-1 1zm0 3h-3l1-1v-1h2v2zM816 296h-1v2l-1-1v-1h-1v-3l1-3h1v-1h1l1-1h1v3l-1 1v2l-1 1v1zm-8-6v1-1 1-1zM587 383h1v-1 1h-1zm0-5v1h-1v-2 1h1zm1-3v1h-1v-1h1zm-26-11h10l1 1h1l1 1h1v1h2v1h1l1 1h2v1h-1v1h1l1 1h1v1h1v1h1v2h-1v3h1v1h1v1h-1v2h1l-1 1v1l1 1v2h1v1h-1 1l1 1v1h-1v1h-3l-1 1h-2l-1 1h-1v-1h-1v1h-2v-1h-1v1l-1-1h-2v-4l-1-1h-3l-1-1h-1v-1h-3v-1h-1l-1-1v-1l-1-1v-2h-1l-1-1v-3l-1-1v-2h2l1-1v-1h1v-2h-1v-1h1v-1h1l-1-1v-2h-1 1zM583 212h-3v1h-4l-1 1v1h-1v1l1-1v-1l-1 1v2l1 1v1h1v-1h3l-1 1v1h-2v-1l-1 1-1 1h-1l-1 1h-2v-3h-3v-1h1l1-1h1v-1l-1-1h-1l-1 1v-1h-2l1-1h-2 3v-1 1h-1v-2h-1v-1 2h-2l-1 1v2h-1v1h-2v2-1h-1l-1 1h-2v-1h1v-1h1v-3h2l1 1v-2l-1-1v-1h-1v-3h-1v-1h-2v-1h-4v1h-1l-1 1h-2v1h-1l-1-1h-3l-1-1v1h-1v-1h-1l-1-1v-1h1v-2h1v-1l-1-1h1v-1h1v-1l1-1 1-1h1l-1-1h1v-1h-1v-1h-1v-2h2v-1h8v1h2v1-1h2v1h1v-1h1v1h3v1h1v-3l1-1h3l1-1h4v1h1v4h2l1 1v2h1v1-1h1v1h3v-1h1v1l1 1 1 1v-1h1l1 1h2v1h1v1h1-1v1h-1v1h1-1v1h1v3h-3v1h-1l-1 1v2zm-17 3h-2v-1l1 1h1z"/><path d="M571 364h-10v1h-2v-5h1v-1l1-1v-1l2-1 1-1h-1v-1h-1v-2h1v-1h-1 1v-1h1v1h1v-1 1h2v-1h4v-1l1 1v1h1-1v1h1v1l1 1v3l-1 1-1 1v1h-1v3zM80 86v62l1 1h1v-1 1h1l1-1h2v1h-1v1h1l1 1v1h1v1h6l-1-1h2l1-1v1h1v2h1v1h1v1l1 1 1 1 1 1h-1l1 1v1h1v2l1 1 1 1-1 1h1v1h1v1h1v1h1l1 1h1v1h1v5h-1v1h-1l-1-1v-1h1v-2h-1l-1-2-1 1v1l-1 1v-2l1-2h1-1l-1-1v-1h-1v-1h-1v-1l-2-1v-2h1l-1-1h1l-1-1v1l-1-1v-3l-1 1h-1l-1-1v-2l-1-1v-2 5h1v2h-1v-1h-2l1-1-1-1 1-1h-1v-1 2h-1v-1h-1l-1-1 1 1h-1 1v1h1v1h1v1h-1v1h-1v-1h-1l-1-1v-1h-1v-1l-2-1-2-1-1-1v-3h1v2h-4v-1h-2v-2 1h-8 1l-1-1h-1l-1-1v-1h1v-1l-1 1v1h-2v-1h-1 1v-1h-2v-1h-1v-1h1-1l-1 1v-1 1h-1v-1 1h-1v-2 1h-2 1v1h-1v1h1v1h-1 2v1h-1v1l-1 1h-2v-1 1h-1v1h-1 1l-1 1v-1 1l-1 1v-1 1h-1v1h-2l-1 1v-1h-1 1v-1h1v-1h1v-1l-1 1h-1v-2l1-1v-3l1-1h1l1-1v1h4-2v-1h-1v-1l1-1h1v-1l-1 1h-1v1h-3v1h-1l-1 1v1h-1v1h-1v1h1-1v1h-1v-1h-1l1 1 1 1h-1v1h-1v1h-1l-1 1-1 1h1-1v1h2v1h1l-1 1v1h-1v1h-1v1h-1v1h-1l-1 1h-1v1h-1v1h-1v2h-2v1h-1v1h-2l1 1h-2v1h1l-1 1v-1l-1 1-2 1v1-1h-1l-1 1-1 1v-1 1h-2v-1 1-1h-1v1l-1 1v1h-1v-1h-1l1 1h-2v1h-1l1-1v-1h1v-1h1v-1h1v-1h1l1-1h1-1 1v1-1 1h2l-1-1h1v-2h1v-1h2v-1h2v-2h1v-1h1v-1 1h1v-1h-1v-1h1v-2h1-1v-2h1v-2l1-1-1 1-2 1-1 1-1-1v-1h1v-1h-1v1h-1v3l-1-1v-1h-1v-1l-1 1-1-1v-1l-1 1h-1l-1 1-1 1h-1v-1h1v-2h-1v-1l1-1v-1h-1v-3l-1-1 1-1v-1 1h-1v1l-1 1h1v1h-1v1h-4v-1l-1-1v-1h-1v-1h-1l1-1v-1h1l1 1v1-1h1v1l1-1v-1h-1 1-5l1-1h-1v-1 1-1 1h-1v-1l-1-1h1l-1-1v-1h1-1v-1h1v-1l1-1v-1l1-1v1h1l-1-1h1v-1l-1 1v-2l1-1h1-1v-1h2l1 1h-1 3v-1h1v-2h1v1h2v-1h1v-1h1v-1l-1-1v-1l-1-1v-1h1v-1h1l-1-1v-1l-1 1h-1l-1 1h-1l-1 1v1-1l-1-1v1h-1l-1-1h-1l-1 1h-2l-2-1H9v-2H8v-1H7h2v-1h1-1l-1-1H6l-2-1v-1h2v-1h1l1-1 1-1h2l-1-1h1l1-1h1l1-1h3-1v3h3l1 1 1-1v1h1v-2h2v1-1l-1-1h-2l1-1-1-1h-1v-2h1v2l1 1v1l1-1h1v1h2v-1h-1l-1-1-1 1h-1v-3h-2v-1 1h-2l-1-1-1-1v-2l-1-1-3-3-2-1-1-1H8v-1 1h1v-2l1-2H9h4l2-1h1l1-1 1-2v-2l1-1 1-3 1-1 1-1v1h-1v1l1-1 2-1 1-1 2-1v3-2h2l-1-1h-1l1-2h1v1-1h4l1-1v-1h1v-2h1l1-1-1 1h1l2 1v2h-1v1h1v-1l1-1h1l1 1v1h2l1-1h1l1 1v-1h1v1h1l-1 1v1h2v1h-1 10v1h2v1h4l1 1h2v1h3l1-1h2l1 1h1l1 1 1 1h1v1h1zm-70 25h1-1zm51 34h-1 1z"/><path d="M49 148v-1h1l-1 1zm12 0v1-2 1-1 1zm4 0h1-1l-1 1v-2h1v1zm4 0h-1 1zm-59 0h1v3H8l-1-1H6v-1h2v-1h2zm51 3v-1h1v-1l1-1v1l-1 1v1h-1zm-1-1v-1l1 1h-1zm10 1l1-1v1h-1zm-46 7v-1h1l-1 1zM26 175h-1v-1h1v1zm1 1h-1v1-1h1v-1 1zm80 0h1v1h-1v-2 1zm-79-1v1-1zm1 1h-1 1zm-12 0v1h1v1l-1-1v1h-2v1h-2v-1h1v-1h1v-1h2zm3 1v-1h1v1h-1zm0 2h-1 1zm-9 1h1-1zm-1 1v-1h1v1h-1zm-2 0v1h1v-1 1H8h1v1H8v1H6l-1 1v-1h1l1-1v-1h1v1-1H7v-1h1zm1 1h1-1zm-4 2l-1 1H3v1H2l-1 1v-1h1v-1h1v-1 1-1l1-1h1v1zm209 21h1l1 1 1 1v-1h1v1h1v1l1-1h3v1h1-1v1h-2v1l-2 1v1l-1 1h-1 3v-1h1v2-1h1v1l1-1h1l1-1h1l1-1v1h1v1-1h2v1h1v1h2l1-1h3v1h3v1h-1 1v1h-2v1-1h-4v1h-1v-1 1h-1v-1 1h-1v2h-1v1h-1v2-1h1v-1h1v2h-1v3l-1 1v2h1v1h-1v1l1 1v2h2v-1h1v-1l1-1v-3l-1-1v-3h1v-3h1v-1h1v2-1 1-2h1v-1h1-1v-1h2l1 1h1l1 1v4h-1v1h-1v1h2v-1h2v3l1 1-1 1v1h-1v1h-1v2h2l-1 1h2v-1h2l1-1h1l1-1h1l1-1h1l1-1h1v-1h-1v-1l1-1h2l1 1h2l1-1h1v-3l1-1 1-1 1-1h10v-1h2v-1h1-1l1-1h1v-4h1v-1l1-1v-1h1v1h2v-1l1 1 1 1v6h1-1 1v1h1-1l1 1v1h-2v1h-2v1h-1v-1h-1v2h-2v1-1l-1 1-1 1v1h-1v2h1-1v2h1v1l1 1v-2l1 1v1h-4v-1 1h-1v1h-4v1h-2v1h-1l1-1-1-1v3h-1 1v3-1 1h-1v2h-1v1-1h-1l-1-1v-1l1-1-1 1v2l1 1v3h-1v2h-1v1-2l1-1h-1v-1h-1v-1h1-1v-1 1-3h1v-1 1h-2v4-1 1h1v1h-1v-1h-2v-1h1v-1 1h-1v1h1l1 1h1v1h-1l-1-1h-1 1l1 1 1 1h-1v1l-1-1h1v1h1v1h-1v-1h-2 2v1h2v2l1 2-1-1v-2 2-1h-1v1-1 1h-1v-1 1h1v1h1v-1 2h-3 1v1l-1 1v-1 1h2-1v1h-2v-1 1h-1v1h-1v1-1 1h-2v1h-1v2-1h-1l1 1h-1l-1 1-1 1h-1v1-1h-1v1-1 2h-1v2h-1v3l1 1v2l1 1 1 2v2-2h-1v-1 2h1l1 3v5l-1 1h-2 1-1v-2h-1l-1-1v-2h-1v-1l-1-1 1-1h-2l1-1v-3l-2-1-1-2h-2l-1 1h-2v-1h-1 1-1l1-1h-1v1-1h-2 1-3 1v-1 1l-1-1v1h-2 1-1v-1 1h-4l-1 1-1-1h-1v1h3v1h-1 1-1v1h2v1h-1l-1-1h-1v1h-1v-1l-1 1h-1v-1h-1v-1h-2 1-1v1l-1-1h-4 1v-1l-1 1-2 1h1-1v-1h-1v1h1l-1 1-1 1h-1l-1 1v-1h-1v1-1 1h-1v1h-1 1l-1 1h-1l1 1-1 1v-1 3l1 1v1h-2l-1-1h-2v-1l-1-1v-2h-1v-1l-1-1-1-1v-1l-1-1v-1h-1v-1h-4l-1 1v1h-2l-1-1h-1v-1h-1v-2l-1-1h-1v-1l-1-1h-1v-1h-1v-1h-5v2h-8l-1-1h-1l-2-1h-1l-1-1h-2l-1-1h-1v-1h-3l-1 1h-3v-2l-1-1h-1v-1h-1v-1h-2l-1-1h-1l-1-1h-2v-3h-1v-1h-1v-1h-1v-3h-1l-1-1v-3 1-1h-1v-1 1-1l-1-1-1-1v-2l-1-1v-1l-1-1v-13l1-1v-12h-1v-3l-1-1v-2h1v1h4v4l1-1v-6 1-1h77v-2h1v3h3v1l1-1z"/><path d="M131 206h-1v-1h1v1zm0 0v-1 1zm1 1v1-1 1-1h-1l1-1v1zm94 1l1-1h1-1v1h-1zm-94 1v1-1zm96 2v1-1h-1l1-1h2-1v1h-1zm-6 1h-1 1zm-1 1l1-1-1 1zm19 2v-1h-1 1v1zm2 1h-1 1zm-6 2v-1 1zm-4 1v-1 1zm0 0h-1 1v1h-1v1-2h1zm3 1h-1v-1h1v1zm50 3h-1v-1h1v1zm-31 5v-1 1zm22 5v1-1zm0 0v1-1zm2 1h-1 1zm2 0h-1 1zm-8 1v1h1v-1h1l-1 1h-1l-2 1h-2 1-1v-1h2v-1 1h1v-1h2-1zm-4 5v1-1zm-4 7l1-1v-1 1l-1 1zm0 7l-1-1h1v1zm0 2h-1 1v-2 2zm-3 2v-1h1l-1 1zm-14 12v1-1zm-18 2h-1 1zm-4 1h1-1zm2 1v-1h-1 1v1zm11 0h-1 1zm-20 1v-1 1zm-9 1l1-1v1h-1zm-5 3h1v-1 1h-1zm0 1v-1 1zm47 2v-1h-1v-1 1l1 1zm-48 0v-2 2zm0 3v-3 3zm43-1h-1 1zm0 0h-1 1zm4 4v1-1h1-1zm-2 2h1-1zm0 0h-1 1zM326 461v1l-1 1-1 1h-1l-1 1h-5l-1-1-1-1h-1v1l-1-1v-1h-1v-3h1v-7h1v-1h-1l1-1v-1 1h1l1-1h1l1 1v1h1v1h1v-1 1h1v1h1l1 1 1 1h1v2h2v1h-1zM675 231v-1l1 1h-1v1h-1v1h-1v1h2v1h1v-1h1v-1 1h1v1h1l1 1h1l-1 1h-2v1h-5v-1h1v-2h-1v1h-1v1h-1v-1h-1v2h-2 1v2-1 1h-1v1h-1l-1-1-1 1v1h1v1h1v2h1v1h-1v1l-1 1v1h-2v-1h-1v-2h-1l-1-1h-2v-1h-2v-1h-1l-1-1-1-1-1-1h-1v-1h-1v-2h-1v-2h-1v-1h-1v1l-1-1h-3v-1h1-1v-1h1-1v-2h-2l-1-1h-2v1h1-2v1h-2v3h-3v-14h1l1-1h2l1-1h3l1 1 1 1h1v1h2v1h1v1h1v1h1v1l1 1h2v-1h3l1 1h1v-1h1l1 1 1 1v1h1v4h2v3h4v1l1 1v-1l1-1v-1h1l1-1h1v-1h1v-1h2zm-1 4v1-1zm2 4h-1v-1 1h1zM304 324v-1 1zM307 337l1 1h-1v1h-1v1h-1 1v1h1l-1 1h-2v3l1 1h1v1l-1 1h-1v1h-3l-1 1v1h-1v-1h-3v-1h-2v1h1l1 1v3h2v1h-2v2h-2v1h-2v1-1h-1v1h-2v-1h-1v-2l-1-1h1-1v-1h-1v-1h-1 1v-1h1v-1h-1v-3h-1l1-1v-2l1-1h-1v-1h-1v1h-4v-1h-1v-1h-1v-1 1l-1-1h-5v-1h-1v-1h1v-2h-1v-2h-2v-1h1v-2l1-1v-1h1l1-2h2-2v2h1v2h-1v1h-1l1 1v1h1v1l1-1v-3h-1v-2h1l1-1h3v-1h-1v-1h1v2h3l1 1v1l1 1 1-1h4v1h2l1 1h1l2-1h1v-1h-2 7-3 1v2-1l1 1v1-1h1v1h1v-1l1 1h1v2h-1v1h-1 4zm-10-7h-2 2zm-4 0h-1 1zM295 308h1-1zm0 1v-1 1zm0 0h-1 1zM294 309h-1 1zm0 1v1h1-1v-1zM779 299v1h-2v1h-2v2h-1v1h-1v3h-1l1 1 1 1 1 1v1h-1 1v1h1l1 1 1 1v1h2v1l1 1v1h1v3l1 1h-1l1 1v3-1h-1l1 1h-1v1h1-1v2h-1v1h-2v1h-1v1h-1l-1-1v1l-1-1v1h1-1 1v1h-1l-1-1 1 1v1h-1l-1-1 1 1v1h-2v1h-1v1h-1v-4h1-1v-1h-1v-1h2v-1 1l1-1h1l1 1v-1l-1-1v-1h2v-1h1l1-1h1v-4h-1v-2h1v-3h-1v-2h-1v-1h-1v-1l-1-1h-1v-1l-1-1v-1h-1v-1h-1l-1-1-1-1h-1 1v-1h2v-2h-1v-1l-1-1h-1v1h-1v-1h-1v-2h-1v-1h-1v-2h2v1-1h5v-2h2v1h3l1 1h-1v2h1v1h3zm-1 1l-1 1v-1h1zm0 1h-1 1zm-2 1v-1 1zm0 0v-1 1zm1 30h-1 1zm-9 0v1-1h-1 1zm7 5v-1 1zM944 403v1-1h1v2h-1v-1l-1-1v-1h1v1zm4 1v-1 1zm-1 0v1h-1l1-1zm1 2v-1 1zm-2 0v1h1v1h-1v-1l-1-1v1-1h1zm2 1h-1 1v-1 1zm1 1v1l-1-1h1zm0 3h-1 1zm2 4h-1v-1h1v1zm1 1l-1 1v-1h1zm1 2v1h-1v-1h1zM625 314h-2v1h-1v2h-1v1h-2l-1 1h-3l-1 1h-1v1h-1l-1 1v-1h-1v1h-1l-1 1h-4v1h-1l-1 1h-4l-1-1v-4l-1-1v-4l1-1v-3h1v1h9v1h2v-1l1-1v-1h1v-1h1l1-1h4l1-1h4v1l1 1v2h1v2h1v1zm-30 4v-1l1 1h-1zm1 4v-1 1zM564 425v3l1 1v2h1v4h-1l1 1h-1l-1-1-1 1v1h-1v2h1v1h3v-1h2v2l-1 2v1l-1 1h-1l-1 2h-1v2l-1 1-1 1v1l-1 1h-1v1l-1 1-1 1-1 1-1 1-1 1-1 1h-1l-1 1h-3v1h-10l-1 1h-3l-1 1-1 1v-1h-2v-1h-1v-1h-1v1h-1v-1h1v-1l-1-1v-1h-1v-1h1v-4l-1-1v-1l-1-2-1-1-1-2v-1l-1-2h1v-1l1-1v1h1v2h5l1-1h1v-12l1 1v1h1v5h3v-1h1v-1h1v-1h1v-2h2l1 1h5v-2l1-1h1v-1h1l1-2v-1h2v-1l1-1h1v-1h1l1-1h2l1 1h3zm-7 24l1-1v-2l-1-1-1-1-1 1h-1v1h-1v1h-1v2h1v1h1v1h1v-2h2zM568 387v1h1v1h1v2h-1v1h1-1v4h1-1l-1 1h1-1v3h1l-1 1h-2v1h-3v1h-2v2h-3l-1 1v2h-2l-1 1-1 1v1h-1v1h-4v-1 1h-1v-1h-2l-1-1-1 1h-1l-1-1h-1v-1h-1v-1h-1v-11h5v-6l1 1v1h2l1-1v2h3l1 1v-1h1v-1 1h1v1h1l1 1h1v1h1v2h1v-1h1v1h1v-4h-1v1h-2v-1l-1-1v-1h-1 1v-7h1v-1h1l1-1h3l1 1h1v1h3v1z"/><path d="M564 425h-3l-1-1h-3v-1h-2v-1h-1v-3h-2v-1h-1l-1-1-1-1v-1l-1-1v-1h-1v-2 1h1v-1 1h4v-1h1v-1l1-1 1-1h2v-2l1-1h3v1h3v1h2l1 1h1v9h1v1h-1v1l-1 1v2h-1v1h-1v1z"/></g></svg>